<svg xmlns="http://www.w3.org/2000/svg" xmlns:xlink="http://www.w3.org/1999/xlink"><defs><symbol viewBox="0 0 24 25" fill="none" id="01d">
<path d="M0 12C0 11.7288 0.0903955 11.4915 0.282486 11.2994C0.474576 11.1186 0.711864 11.0282 0.960452 11.0282H3.26554C3.52542 11.0282 3.74011 11.1186 3.9209 11.3107C4.0904 11.5028 4.18079 11.7288 4.18079 12C4.18079 12.2712 4.10169 12.4972 3.9322 12.6893C3.76271 12.8814 3.53672 12.9718 3.27684 12.9718H0.971751C0.711864 12.9718 0.485876 12.8814 0.293786 12.6893C0.101695 12.4972 0 12.2712 0 12ZM3.23164 19.8305C3.23164 19.5706 3.32203 19.3446 3.49153 19.1412L5.15254 17.5254C5.32203 17.3446 5.54802 17.2655 5.81921 17.2655C6.0904 17.2655 6.31638 17.3559 6.49717 17.5254C6.67797 17.6949 6.76836 17.9096 6.76836 18.1695C6.76836 18.4407 6.67797 18.6893 6.49717 18.8927L4.89265 20.4972C4.42938 20.8588 3.9661 20.8588 3.50282 20.4972C3.32203 20.3164 3.23164 20.0904 3.23164 19.8305ZM3.23164 4.19209C3.23164 3.9322 3.32203 3.70621 3.49153 3.50282C3.71751 3.31073 3.9548 3.22034 4.21469 3.22034C4.46328 3.22034 4.68926 3.31073 4.88136 3.49153L6.49717 5.15254C6.67797 5.32203 6.76836 5.54802 6.76836 5.81921C6.76836 6.09039 6.67797 6.31638 6.49717 6.49718C6.31638 6.67797 6.0904 6.76836 5.81921 6.76836C5.54802 6.76836 5.32203 6.67797 5.15254 6.49718L3.50282 4.88136C3.32203 4.70056 3.23164 4.46328 3.23164 4.19209ZM6.11299 12C6.11299 10.9492 6.37288 9.9661 6.90395 9.06215C7.43503 8.15819 8.14689 7.43503 9.06215 6.90395C9.9774 6.37288 10.9492 6.11299 12 6.11299C12.791 6.11299 13.548 6.27119 14.2825 6.58757C15.0056 6.90395 15.6384 7.32203 16.1582 7.85311C16.6893 8.38418 17.1073 9.00565 17.4124 9.72881C17.7175 10.452 17.8757 11.2203 17.8757 12.0113C17.8757 13.0734 17.6158 14.0565 17.0847 14.9605C16.5537 15.8644 15.8418 16.5763 14.9379 17.1073C14.0339 17.6384 13.0508 17.8983 11.9887 17.8983C10.9266 17.8983 9.9435 17.6384 9.03955 17.1073C8.13559 16.5763 7.42373 15.8644 6.89265 14.9605C6.38418 14.0452 6.11299 13.0621 6.11299 12ZM8.0339 12C8.0339 13.1073 8.41808 14.0452 9.19774 14.8249C9.9661 15.6045 10.904 16 12.0113 16C13.1186 16 14.0565 15.6045 14.8362 14.8249C15.6158 14.0452 16.0113 13.1073 16.0113 12C16.0113 10.9153 15.6158 9.9887 14.8362 9.20904C14.0565 8.44068 13.1186 8.0565 12.0113 8.0565C10.9153 8.0565 9.9774 8.44068 9.20904 9.20904C8.41808 9.9887 8.0339 10.9153 8.0339 12ZM11.0395 20.791C11.0395 20.5198 11.1299 20.2938 11.322 20.113C11.5141 19.9322 11.7401 19.8418 12 19.8418C12.2712 19.8418 12.5085 19.9322 12.6893 20.113C12.8701 20.2938 12.9605 20.5198 12.9605 20.791V23.0395C12.9605 23.3107 12.8701 23.548 12.678 23.7401C12.4859 23.9322 12.2599 24.0226 12 24.0226C11.7401 24.0226 11.5028 23.9322 11.322 23.7401C11.1299 23.548 11.0395 23.3107 11.0395 23.0395V20.791ZM11.0395 3.27684V0.971752C11.0395 0.711865 11.1299 0.485876 11.322 0.293786C11.5141 0.101695 11.7401 0 12.0113 0C12.2825 0 12.4972 0.0903955 12.6893 0.282486C12.8814 0.474576 12.9718 0.700565 12.9718 0.960452V3.27684C12.9718 3.53672 12.8814 3.75141 12.6893 3.9322C12.4972 4.11299 12.2712 4.19209 12.0113 4.19209C11.7514 4.19209 11.5141 4.10169 11.3333 3.9322C11.1525 3.76271 11.0395 3.53672 11.0395 3.27684ZM17.2768 18.1695C17.2768 17.9096 17.3672 17.6949 17.5367 17.5367C17.7062 17.3559 17.9209 17.2768 18.1695 17.2768C18.4407 17.2768 18.6667 17.3672 18.8475 17.5367L20.4972 19.1525C20.678 19.3446 20.7684 19.5819 20.7684 19.8418C20.7684 20.1017 20.678 20.3277 20.4972 20.5085C20.0452 20.8588 19.5932 20.8588 19.1412 20.5085L17.5367 18.904C17.3672 18.7006 17.2768 18.4633 17.2768 18.1695ZM17.2768 5.83051C17.2768 5.54802 17.3672 5.32203 17.5367 5.16384L19.1412 3.50282C19.3333 3.32203 19.5593 3.23164 19.8079 3.23164C20.0791 3.23164 20.3051 3.32203 20.4859 3.51412C20.678 3.70621 20.7684 3.9322 20.7684 4.19209C20.7684 4.47458 20.678 4.71186 20.4972 4.89266L18.8475 6.50847C18.6441 6.68927 18.4181 6.77966 18.1695 6.77966C17.9096 6.77966 17.7062 6.68927 17.5367 6.50847C17.3672 6.32768 17.2768 6.10169 17.2768 5.83051ZM19.8305 12C19.8305 11.7288 19.9209 11.5028 20.1017 11.2994C20.2825 11.1186 20.4972 11.0282 20.7458 11.0282H23.0282C23.2881 11.0282 23.5141 11.1299 23.7062 11.322C23.8983 11.5141 24 11.7401 24 12C24 12.2599 23.8983 12.4859 23.7062 12.678C23.5141 12.8701 23.2881 12.9605 23.0282 12.9605H20.7458C20.4859 12.9605 20.2599 12.8701 20.0904 12.678C19.9209 12.4859 19.8305 12.2712 19.8305 12Z" fill="currentColor" />
</symbol><symbol viewBox="0 0 24 25" fill="none" id="01n">
<path d="M0 12.0592C0 10.4287 0.322713 8.88308 0.951153 7.38841C1.57959 5.89374 2.44582 4.61988 3.51586 3.54983C4.58591 2.47979 5.87676 1.61356 7.37143 0.968136C8.86609 0.322712 10.4287 0 12.0423 0H13.9785C14.2503 0.0679394 14.3692 0.237788 14.3692 0.475575L14.4541 1.97024C14.5221 4.12732 15.2864 5.96168 16.781 7.47334C18.2757 8.98499 20.0761 9.80026 22.1992 9.88519L23.592 10.0041C23.8637 10.0041 23.9996 10.14 23.9996 10.3947V12.0592C24.0166 14.2333 23.4901 16.2545 22.42 18.1059C21.35 19.9572 19.9063 21.4179 18.0549 22.5049C16.2205 23.575 14.1993 24.1185 12.0253 24.1185C10.3777 24.1185 8.79816 23.7958 7.30349 23.1673C5.80882 22.5389 4.53496 21.6727 3.46491 20.6026C2.39486 19.5326 1.54562 18.2417 0.917182 16.7641C0.322712 15.2694 0 13.7068 0 12.0592ZM3.10823 12.0592C3.10823 13.3501 3.363 14.573 3.87255 15.728C4.38209 16.866 5.06149 17.8341 5.89375 18.6154C6.726 19.3967 7.67715 20.0082 8.76418 20.4498C9.83423 20.9084 10.9382 21.1292 12.0592 21.1292C13.0444 21.1292 14.0465 20.9423 15.0486 20.5517C16.0507 20.161 16.9849 19.6175 17.8511 18.9211C18.7173 18.2247 19.4477 17.3415 20.0761 16.2545C20.7045 15.1675 21.0952 13.9955 21.282 12.7047C18.5135 12.1272 16.2885 10.9382 14.624 9.13785C12.9594 7.33746 11.9913 5.23134 11.7365 2.78552C10.106 2.88743 8.64529 3.37999 7.30349 4.28018C5.97867 5.18038 4.94259 6.31837 4.21224 7.71112C3.4819 9.10388 3.10823 10.5476 3.10823 12.0592Z" fill="currentColor" />
</symbol><symbol viewBox="0 0 24 19" fill="none" id="02d">
<path d="M0 14.2768C0 15.0804 0.196429 15.8214 0.589286 16.5C0.982143 17.1786 1.51786 17.7143 2.19643 18.1071C2.875 18.5 3.60714 18.6964 4.40179 18.6964H14.0714C14.8661 18.6964 15.6071 18.5 16.2857 18.1071C16.9643 17.7143 17.5089 17.1786 17.9018 16.5C18.2946 15.8214 18.5 15.0804 18.5 14.2768C18.5 13.6875 18.375 13.0893 18.125 12.4911C18.8036 11.6696 19.1429 10.6786 19.1429 9.54464C19.1429 8.91071 19.0179 8.30357 18.7768 7.72321C18.5357 7.14286 18.1964 6.65179 17.7768 6.23214C17.3571 5.8125 16.8661 5.47321 16.2857 5.23214C15.7054 4.98214 15.0982 4.86607 14.4643 4.86607C13.1429 4.86607 11.9911 5.38393 11 6.41964C10.3125 6.02679 9.50893 5.83036 8.58929 5.83036C7.33036 5.83036 6.22321 6.22321 5.25893 7C4.29464 7.77679 3.66964 8.77679 3.40179 9.99107C2.40179 10.2232 1.58929 10.7321 0.955357 11.5357C0.321429 12.3393 0 13.25 0 14.2768ZM1.52679 14.2768C1.52679 13.5268 1.77679 12.8839 2.27679 12.3393C2.77679 11.7946 3.40179 11.4821 4.15179 11.3929L4.59821 11.3661C4.70536 11.3661 4.76786 11.3125 4.76786 11.2054L4.83036 10.7232C4.95536 9.75893 5.375 8.94643 6.08929 8.30357C6.80357 7.65179 7.64286 7.33036 8.59821 7.33036C9.58036 7.33036 10.4375 7.66071 11.1607 8.3125C11.8929 8.96429 12.2946 9.76786 12.3839 10.7321L12.4464 11.25C12.4643 11.3482 12.5268 11.4018 12.6339 11.4018H14.0714C14.8571 11.4018 15.5357 11.6875 16.1071 12.2589C16.6786 12.8304 16.9643 13.5 16.9643 14.2857C16.9643 15.0982 16.6786 15.7857 16.1161 16.3571C15.5536 16.9286 14.8661 17.2143 14.0804 17.2143H4.40179C3.61607 17.2143 2.94643 16.9286 2.375 16.3482C1.8125 15.7679 1.52679 15.0804 1.52679 14.2768ZM7.50893 3.32143C7.50893 3.53571 7.58036 3.72321 7.72321 3.88393L8.3125 4.45536C8.53571 4.625 8.72321 4.69643 8.88393 4.67857C9.07143 4.67857 9.23214 4.59821 9.375 4.44643C9.51786 4.29464 9.58929 4.10714 9.58929 3.89286C9.58929 3.67857 9.50893 3.5 9.35714 3.36607L8.83036 2.77679C8.66964 2.63393 8.49107 2.5625 8.28571 2.5625C8.07143 2.5625 7.88393 2.63393 7.73214 2.78571C7.58036 2.92857 7.50893 3.10714 7.50893 3.32143ZM12.2768 7.27679C12.8929 6.67857 13.625 6.38393 14.4643 6.38393C15.3482 6.38393 16.0982 6.6875 16.7143 7.30357C17.3304 7.91964 17.6429 8.66071 17.6429 9.54464C17.6429 10.0982 17.4911 10.6518 17.1875 11.1875C16.3214 10.3304 15.2857 9.90179 14.0714 9.90179H13.7857C13.5625 8.92857 13.0625 8.05357 12.2768 7.27679ZM13.7321 2.5625C13.7321 2.79464 13.8036 2.97321 13.9375 3.11607C14.0714 3.25893 14.25 3.32143 14.4643 3.32143C14.6964 3.32143 14.875 3.25 15.0179 3.11607C15.1607 2.97321 15.2232 2.79464 15.2232 2.5625V0.732143C15.2232 0.517857 15.1518 0.348214 15.0089 0.205357C14.8661 0.0625 14.6875 0 14.4643 0C14.25 0 14.0804 0.0714285 13.9375 0.205357C13.7946 0.339286 13.7321 0.517857 13.7321 0.732143V2.5625ZM18.6607 4.60714C18.6607 4.83929 18.7232 5.01786 18.8571 5.16071C19.0446 5.30357 19.2321 5.375 19.4107 5.375C19.5714 5.375 19.75 5.30357 19.9375 5.16071L21.2143 3.88393C21.3571 3.72321 21.4286 3.53571 21.4286 3.3125C21.4286 3.09821 21.3571 2.91964 21.2143 2.77679C21.0714 2.63393 20.8929 2.5625 20.6875 2.5625C20.4732 2.5625 20.3036 2.63393 20.1696 2.77679L18.8571 4.05357C18.7232 4.22321 18.6607 4.40179 18.6607 4.60714ZM19.3661 15.1786C19.3661 15.3929 19.4375 15.5804 19.5893 15.7411L20.1696 16.3036C20.3036 16.4464 20.4732 16.5179 20.6875 16.5179C20.9018 16.5179 21.0804 16.4464 21.2232 16.2946C21.3661 16.1429 21.4375 15.9643 21.4375 15.7411C21.4375 15.5446 21.3661 15.3661 21.2232 15.2232L20.6429 14.6429C20.5 14.5 20.3304 14.4286 20.1339 14.4286C19.9196 14.4286 19.7411 14.5 19.5982 14.6429C19.4464 14.7857 19.3661 14.9643 19.3661 15.1786ZM20.6786 9.54464C20.6786 9.75 20.7589 9.91964 20.9107 10.0625C21.0536 10.2054 21.2411 10.2768 21.4554 10.2768H23.2768C23.4821 10.2768 23.6518 10.2054 23.7946 10.0714C23.9375 9.9375 24 9.75893 24 9.54464C24 9.33036 23.9286 9.15179 23.7946 9.00893C23.6607 8.86607 23.4821 8.78571 23.2768 8.78571H21.4554C21.2411 8.78571 21.0625 8.85714 20.9107 9.00893C20.75 9.16071 20.6786 9.33929 20.6786 9.54464Z" fill="currentColor" />
</symbol><symbol viewBox="0 0 24 19" fill="none" id="02n">
<path d="M0 12.7455C0 11.4643 0.386562 10.3378 1.17073 9.34376C1.9549 8.34975 2.95996 7.7202 4.19696 7.44409C4.45099 6.30649 4.97009 5.31247 5.74321 4.46203C6.51634 3.6116 7.45513 3.00414 8.53751 2.63967C9.22227 2.40773 9.92913 2.28624 10.6691 2.28624C11.5637 2.28624 12.4363 2.46295 13.2646 2.81638C13.5739 2.29728 13.9383 1.84445 14.358 1.46894C14.7777 1.09342 15.2085 0.795214 15.6503 0.59641C16.092 0.397607 16.5338 0.242982 16.9535 0.14358C17.3732 0.0441781 17.7929 0 18.1905 0C18.6102 0 19.063 0.055223 19.549 0.176714L20.4547 0.45283C20.6093 0.519098 20.6535 0.59641 20.6093 0.695812L20.4547 1.35849C20.3774 1.70087 20.3442 2.02117 20.3442 2.30833C20.3442 2.65071 20.3994 3.00414 20.5099 3.35757C20.6203 3.711 20.775 4.05338 20.9959 4.39577C21.2057 4.73815 21.5039 5.03635 21.8794 5.31247C22.2549 5.58859 22.6746 5.79843 23.1496 5.94201L23.8343 6.185C23.9448 6.21813 24 6.27335 24 6.36171C24 6.3838 23.989 6.40589 23.9779 6.43902L23.7791 7.17901C23.4809 8.37184 22.9176 9.31063 22.1224 10.0175C22.5642 10.7906 22.8072 11.619 22.8403 12.4915C22.8514 12.5467 22.8514 12.624 22.8514 12.7455C22.8514 13.7285 22.6084 14.6452 22.1114 15.4846C21.6254 16.324 20.9517 16.9867 20.1233 17.4726C19.2839 17.9586 18.3672 18.2126 17.3843 18.2126H5.44501C4.46203 18.2126 3.54533 17.9696 2.70594 17.4726C1.86654 16.9756 1.21491 16.3129 0.728946 15.4846C0.242982 14.6562 0 13.7395 0 12.7455ZM1.88863 12.7455C1.88863 13.7285 2.24206 14.5789 2.94892 15.2968C3.65578 16.0147 4.48412 16.3792 5.44501 16.3792H17.3843C18.3672 16.3792 19.2066 16.0258 19.9024 15.3079C20.5983 14.59 20.9517 13.7395 20.9517 12.7455C20.9517 11.7736 20.5983 10.9452 19.8914 10.2494C19.1845 9.55361 18.3451 9.20018 17.3732 9.20018H15.4073L15.2968 8.37184C15.1864 7.25633 14.7225 6.29544 13.9052 5.51127C13.0879 4.72711 12.116 4.28532 11.0005 4.18592C10.9673 4.18592 10.9121 4.18592 10.8348 4.17487C10.7575 4.16383 10.7133 4.16383 10.6691 4.16383C10.1058 4.16383 9.54257 4.27427 8.96825 4.48412V4.46203C8.16199 4.77128 7.47722 5.27934 6.93603 5.97515C6.3838 6.67096 6.05246 7.46617 5.94202 8.37184L5.8647 9.16705L5.11367 9.20018C4.18592 9.31063 3.41279 9.69719 2.79429 10.3709C2.17579 11.0446 1.88863 11.8288 1.88863 12.7455ZM14.8661 3.78831C16.0368 4.79337 16.7658 5.9641 17.0419 7.30051H17.3953C18.7648 7.30051 19.9356 7.73125 20.8965 8.60377C21.2609 8.26139 21.537 7.86378 21.7358 7.422C20.7308 6.94708 19.9356 6.21813 19.3502 5.2462C18.7759 4.27427 18.4777 3.24712 18.4777 2.17579V1.91072C18.4225 1.89968 18.3341 1.89968 18.2126 1.89968C17.572 1.88863 16.9425 2.04326 16.335 2.38564C15.7276 2.71698 15.2306 3.18086 14.8661 3.78831Z" fill="currentColor" />
</symbol><symbol viewBox="0 0 24 17" fill="none" id="03d">
<path d="M0 10.9605C0 9.63234 0.415784 8.45428 1.24735 7.41482C2.07892 6.37536 3.12993 5.70549 4.41193 5.41675C4.76997 3.83446 5.58999 2.54091 6.84889 1.52454C8.1078 0.508181 9.56304 0 11.1915 0C12.7854 0 14.206 0.496632 15.4533 1.47834C16.7007 2.46006 17.5091 3.73051 17.8787 5.27815H18.2599C19.2993 5.27815 20.2579 5.53224 21.1357 6.02887C22.0135 6.52551 22.718 7.21848 23.2262 8.09625C23.7344 8.97401 24 9.92108 24 10.9605C24 11.9769 23.7575 12.924 23.2724 13.7902C22.7873 14.6564 22.1174 15.3494 21.2743 15.8691C20.4312 16.3888 19.4957 16.666 18.4909 16.7007H5.54379C3.99615 16.6314 2.69105 16.0424 1.61694 14.9336C0.54283 13.8364 0 12.5082 0 10.9605ZM1.97498 10.9605C1.97498 11.9654 2.32146 12.8316 3.01444 13.5707C3.70741 14.3099 4.55053 14.7026 5.54379 14.7603H18.4678C19.461 14.7142 20.3041 14.3099 20.9971 13.5707C21.7016 12.8316 22.0481 11.9538 22.0481 10.9605C22.0481 9.94418 21.667 9.07796 20.9163 8.33879C20.1655 7.59962 19.2762 7.23003 18.2368 7.23003H16.3888C16.2618 7.23003 16.1925 7.16073 16.1925 7.02214L16.1116 6.36381C15.9846 5.11646 15.4418 4.06545 14.4947 3.22233C13.5476 2.37921 12.4504 1.95188 11.1915 1.95188C9.93263 1.95188 8.82387 2.37921 7.8999 3.22233C6.96439 4.06545 6.43311 5.11646 6.31761 6.36381L6.22522 7.02214C6.22522 7.16073 6.14437 7.23003 5.99423 7.23003H5.3821C4.41193 7.34553 3.60346 7.76131 2.95669 8.46583C2.30991 9.17036 1.97498 10.0019 1.97498 10.9605Z" fill="currentColor" />
</symbol><symbol viewBox="0 0 24 17" fill="none" id="03n">
<path d="M0 10.9605C0 9.63234 0.415784 8.45428 1.24735 7.41482C2.07892 6.37536 3.12993 5.70549 4.41193 5.41675C4.76997 3.83446 5.58999 2.54091 6.84889 1.52454C8.1078 0.508181 9.56304 0 11.1915 0C12.7854 0 14.206 0.496632 15.4533 1.47834C16.7007 2.46006 17.5091 3.73051 17.8787 5.27815H18.2599C19.2993 5.27815 20.2579 5.53224 21.1357 6.02887C22.0135 6.52551 22.718 7.21848 23.2262 8.09625C23.7344 8.97401 24 9.92108 24 10.9605C24 11.9769 23.7575 12.924 23.2724 13.7902C22.7873 14.6564 22.1174 15.3494 21.2743 15.8691C20.4312 16.3888 19.4957 16.666 18.4909 16.7007H5.54379C3.99615 16.6314 2.69105 16.0424 1.61694 14.9336C0.54283 13.8364 0 12.5082 0 10.9605ZM1.97498 10.9605C1.97498 11.9654 2.32146 12.8316 3.01444 13.5707C3.70741 14.3099 4.55053 14.7026 5.54379 14.7603H18.4678C19.461 14.7142 20.3041 14.3099 20.9971 13.5707C21.7016 12.8316 22.0481 11.9538 22.0481 10.9605C22.0481 9.94418 21.667 9.07796 20.9163 8.33879C20.1655 7.59962 19.2762 7.23003 18.2368 7.23003H16.3888C16.2618 7.23003 16.1925 7.16073 16.1925 7.02214L16.1116 6.36381C15.9846 5.11646 15.4418 4.06545 14.4947 3.22233C13.5476 2.37921 12.4504 1.95188 11.1915 1.95188C9.93263 1.95188 8.82387 2.37921 7.8999 3.22233C6.96439 4.06545 6.43311 5.11646 6.31761 6.36381L6.22522 7.02214C6.22522 7.16073 6.14437 7.23003 5.99423 7.23003H5.3821C4.41193 7.34553 3.60346 7.76131 2.95669 8.46583C2.30991 9.17036 1.97498 10.0019 1.97498 10.9605Z" fill="currentColor" />
</symbol><symbol viewBox="0 0 24 16" fill="none" id="04d">
<path d="M0 11.1303C0 10.0605 0.334984 9.09875 1.00495 8.2667C1.67492 7.43464 2.52859 6.89434 3.57677 6.65661C3.85772 5.39232 4.49527 4.34414 5.50022 3.5445C6.50518 2.73405 7.66141 2.33423 8.97974 2.33423C10.2548 2.33423 11.4003 2.72325 12.3944 3.51208C13.3994 4.30092 14.0477 5.30587 14.3395 6.53775H14.6312C15.9063 6.53775 16.9869 6.98079 17.8838 7.87768C18.7807 8.77458 19.2346 9.85517 19.2346 11.1195C19.2346 12.3946 18.7807 13.4752 17.8838 14.3721C16.9869 15.2689 15.9063 15.7228 14.6312 15.7228H4.61414C3.98739 15.7228 3.39307 15.6039 2.83116 15.3554C2.26925 15.1069 1.76137 14.8043 1.35074 14.3937C0.940117 13.983 0.615939 13.486 0.367402 12.9241C0.118865 12.3621 0 11.7462 0 11.1303ZM1.56686 11.1303C1.56686 11.9515 1.86943 12.6647 2.45295 13.2482C3.03647 13.8318 3.76047 14.1343 4.60333 14.1343H14.6312C15.4633 14.1343 16.1873 13.8426 16.7816 13.2482C17.376 12.6539 17.6785 11.9515 17.6785 11.1303C17.6785 10.309 17.3868 9.59583 16.7816 9.01231C16.1873 8.42879 15.4741 8.12622 14.6312 8.12622H13.1292C13.0212 8.12622 12.9671 8.07219 12.9671 7.96413L12.8915 7.43464C12.7834 6.41888 12.3512 5.56521 11.6056 4.89524C10.86 4.22527 9.97389 3.89029 8.95813 3.89029C7.94237 3.89029 7.05628 4.22527 6.29986 4.90605C5.54345 5.57602 5.12202 6.42969 5.02476 7.43464L4.94912 7.88849C4.94912 7.99655 4.89509 8.05058 4.77623 8.05058L4.28996 8.12622C3.51193 8.19105 2.86358 8.51523 2.33408 9.08795C1.83701 9.66066 1.56686 10.3414 1.56686 11.1303ZM11.1301 1.70749C11.0221 1.80474 11.0437 1.88038 11.2058 1.93441C11.6704 2.13973 12.0594 2.33423 12.3728 2.52874C12.4917 2.56116 12.5781 2.55035 12.6105 2.49632C13.2697 1.88038 14.0261 1.56701 14.9014 1.56701C15.7767 1.56701 16.5223 1.85877 17.1706 2.44229C17.8082 3.02581 18.1648 3.74981 18.2404 4.60348L18.3377 5.29506H19.8721C20.5745 5.29506 21.1796 5.5436 21.6875 6.05148C22.1954 6.55936 22.4439 7.15368 22.4439 7.84526C22.4439 8.49362 22.217 9.05553 21.774 9.5418C21.3309 10.0281 20.7798 10.2982 20.1207 10.3739C20.0126 10.3739 19.9586 10.4279 19.9586 10.5468V11.7678C19.9586 11.8867 20.0126 11.9407 20.1207 11.9407C21.2121 11.8759 22.1306 11.4436 22.8762 10.6548C23.6218 9.86598 24 8.92586 24 7.84526C24 6.69983 23.6002 5.7273 22.7897 4.92766C21.9793 4.11721 21.0068 3.71739 19.8721 3.71739H19.71C19.4291 2.6368 18.8348 1.75071 17.9271 1.04833C17.0302 0.345941 16.0144 0.000150091 14.9014 0.000150091C13.3886 -0.0106559 12.1243 0.562059 11.1301 1.70749Z" fill="currentColor" />
</symbol><symbol viewBox="0 0 24 16" fill="none" id="04n">
<path d="M0 11.1303C0 10.0605 0.334984 9.09875 1.00495 8.2667C1.67492 7.43464 2.52859 6.89434 3.57677 6.65661C3.85772 5.39232 4.49527 4.34414 5.50022 3.5445C6.50518 2.73405 7.66141 2.33423 8.97974 2.33423C10.2548 2.33423 11.4003 2.72325 12.3944 3.51208C13.3994 4.30092 14.0477 5.30587 14.3395 6.53775H14.6312C15.9063 6.53775 16.9869 6.98079 17.8838 7.87768C18.7807 8.77458 19.2346 9.85517 19.2346 11.1195C19.2346 12.3946 18.7807 13.4752 17.8838 14.3721C16.9869 15.2689 15.9063 15.7228 14.6312 15.7228H4.61414C3.98739 15.7228 3.39307 15.6039 2.83116 15.3554C2.26925 15.1069 1.76137 14.8043 1.35074 14.3937C0.940117 13.983 0.615939 13.486 0.367402 12.9241C0.118865 12.3621 0 11.7462 0 11.1303ZM1.56686 11.1303C1.56686 11.9515 1.86943 12.6647 2.45295 13.2482C3.03647 13.8318 3.76047 14.1343 4.60333 14.1343H14.6312C15.4633 14.1343 16.1873 13.8426 16.7816 13.2482C17.376 12.6539 17.6785 11.9515 17.6785 11.1303C17.6785 10.309 17.3868 9.59583 16.7816 9.01231C16.1873 8.42879 15.4741 8.12622 14.6312 8.12622H13.1292C13.0212 8.12622 12.9671 8.07219 12.9671 7.96413L12.8915 7.43464C12.7834 6.41888 12.3512 5.56521 11.6056 4.89524C10.86 4.22527 9.97389 3.89029 8.95813 3.89029C7.94237 3.89029 7.05628 4.22527 6.29986 4.90605C5.54345 5.57602 5.12202 6.42969 5.02476 7.43464L4.94912 7.88849C4.94912 7.99655 4.89509 8.05058 4.77623 8.05058L4.28996 8.12622C3.51193 8.19105 2.86358 8.51523 2.33408 9.08795C1.83701 9.66066 1.56686 10.3414 1.56686 11.1303ZM11.1301 1.70749C11.0221 1.80474 11.0437 1.88038 11.2058 1.93441C11.6704 2.13973 12.0594 2.33423 12.3728 2.52874C12.4917 2.56116 12.5781 2.55035 12.6105 2.49632C13.2697 1.88038 14.0261 1.56701 14.9014 1.56701C15.7767 1.56701 16.5223 1.85877 17.1706 2.44229C17.8082 3.02581 18.1648 3.74981 18.2404 4.60348L18.3377 5.29506H19.8721C20.5745 5.29506 21.1796 5.5436 21.6875 6.05148C22.1954 6.55936 22.4439 7.15368 22.4439 7.84526C22.4439 8.49362 22.217 9.05553 21.774 9.5418C21.3309 10.0281 20.7798 10.2982 20.1207 10.3739C20.0126 10.3739 19.9586 10.4279 19.9586 10.5468V11.7678C19.9586 11.8867 20.0126 11.9407 20.1207 11.9407C21.2121 11.8759 22.1306 11.4436 22.8762 10.6548C23.6218 9.86598 24 8.92586 24 7.84526C24 6.69983 23.6002 5.7273 22.7897 4.92766C21.9793 4.11721 21.0068 3.71739 19.8721 3.71739H19.71C19.4291 2.6368 18.8348 1.75071 17.9271 1.04833C17.0302 0.345941 16.0144 0.000150091 14.9014 0.000150091C13.3886 -0.0106559 12.1243 0.562059 11.1301 1.70749Z" fill="currentColor" />
</symbol><symbol viewBox="0 0 24 24" fill="none" id="09d">
<path d="M0 10.9638C0 9.63241 0.416787 8.45152 1.25036 7.40955C2.08394 6.36758 3.13748 5.70767 4.411 5.40666C4.7699 3.83213 5.5919 2.53546 6.85383 1.51664C8.11577 0.497829 9.56295 0 11.1954 0C12.7931 0 14.2055 0.497829 15.4559 1.48191C16.7062 2.46599 17.5166 3.73951 17.8871 5.29088H18.2576C19.288 5.29088 20.2489 5.54559 21.1288 6.04341C22.0087 6.54124 22.7149 7.23589 23.2243 8.1042C23.7337 8.9725 24 9.93343 24 10.9638C24 11.9826 23.7569 12.9204 23.2706 13.7887C22.7844 14.657 22.1129 15.3517 21.2677 15.8726C20.4226 16.3936 19.4964 16.6715 18.4891 16.6946C18.3386 16.6946 18.2576 16.6252 18.2576 16.4978V14.958C18.2576 14.8191 18.3386 14.7496 18.4891 14.7496C19.4732 14.7033 20.3184 14.3097 21.013 13.5687C21.7077 12.8278 22.055 11.9595 22.055 10.9522C22.055 9.945 21.6729 9.0767 20.9204 8.33574C20.1679 7.59479 19.2764 7.22431 18.246 7.22431H16.3821C16.2431 7.22431 16.1737 7.15485 16.1737 7.0275L16.081 6.35601C15.9537 5.10564 15.4095 4.0521 14.4718 3.21852C13.5224 2.37337 12.4342 1.95658 11.1722 1.95658C9.91027 1.95658 8.79884 2.37337 7.87265 3.21852C6.93488 4.06368 6.41389 5.10564 6.29812 6.35601L6.21708 6.96961C6.21708 7.10854 6.13603 7.18958 5.98553 7.18958L5.37192 7.22431C4.411 7.34009 3.60058 7.75687 2.94067 8.4631C2.28075 9.16932 1.95658 10.0029 1.95658 10.9638C1.95658 11.9711 2.30391 12.8394 2.99855 13.5803C3.6932 14.3213 4.53835 14.7149 5.52243 14.7612C5.64978 14.7612 5.71925 14.8307 5.71925 14.9696V16.5094C5.71925 16.6368 5.64978 16.7062 5.52243 16.7062C3.97106 16.6368 2.66281 16.0463 1.58611 14.9349C0.509407 13.8234 0 12.5036 0 10.9638ZM6.19392 18.7091C6.19392 18.6628 6.2055 18.5818 6.24023 18.4776L8.12735 11.7974C8.19682 11.5774 8.32417 11.4038 8.49783 11.288C8.67149 11.1722 8.85673 11.1143 9.03039 11.1143C9.11143 11.1143 9.20405 11.1259 9.30825 11.1491C9.58611 11.1954 9.7945 11.3459 9.93343 11.5774C10.0724 11.809 10.1071 12.0637 10.026 12.3531L8.13893 18.987C8 19.4848 7.67583 19.7279 7.18958 19.7279C7.14327 19.7279 7.10854 19.7163 7.06223 19.7048C6.99276 19.6816 6.95803 19.67 6.94645 19.67C6.69175 19.6006 6.50651 19.4732 6.37916 19.288C6.25181 19.0912 6.19392 18.9059 6.19392 18.7091ZM9.22721 21.9624L12.0521 11.809C12.0984 11.589 12.2142 11.4153 12.3994 11.2996C12.5847 11.1838 12.7699 11.1259 12.9667 11.1259C13.0709 11.1259 13.1751 11.1375 13.2793 11.1606C13.534 11.2301 13.7192 11.3806 13.8466 11.6122C13.974 11.8437 13.9971 12.0868 13.9276 12.3531L11.1143 22.5181C11.068 22.7149 10.9638 22.877 10.7786 23.0159C10.5933 23.1548 10.4081 23.2243 10.1881 23.2243C10.0839 23.2243 9.97974 23.2012 9.8987 23.1664C9.66715 23.1085 9.47033 22.958 9.29667 22.7149C9.16932 22.5065 9.14616 22.2634 9.22721 21.9624ZM14.0087 18.7323C14.0087 18.686 14.0203 18.6049 14.055 18.466L15.9421 11.7858C16.0116 11.5658 16.1273 11.3922 16.2894 11.2764C16.4631 11.1606 16.6368 11.1027 16.822 11.1027C16.9146 11.1027 17.0188 11.1143 17.123 11.1375C17.3661 11.2069 17.5398 11.3227 17.6556 11.4964C17.7713 11.67 17.8292 11.8553 17.8292 12.0405C17.8292 12.0753 17.8177 12.1331 17.8061 12.2026C17.7945 12.2721 17.7829 12.3184 17.7829 12.3415L15.8958 18.9754C15.8495 19.1954 15.7453 19.3806 15.5716 19.508C15.398 19.6353 15.2012 19.7048 14.9812 19.7048L14.7033 19.6469C14.4718 19.5774 14.2981 19.4616 14.1708 19.2764C14.0666 19.1027 14.0087 18.9175 14.0087 18.7323Z" fill="currentColor" />
</symbol><symbol viewBox="0 0 24 24" fill="none" id="09n">
<path d="M0 10.9638C0 9.63241 0.416787 8.45152 1.25036 7.40955C2.08394 6.36758 3.13748 5.70767 4.411 5.40666C4.7699 3.83213 5.5919 2.53546 6.85383 1.51664C8.11577 0.497829 9.56295 0 11.1954 0C12.7931 0 14.2055 0.497829 15.4559 1.48191C16.7062 2.46599 17.5166 3.73951 17.8871 5.29088H18.2576C19.288 5.29088 20.2489 5.54559 21.1288 6.04341C22.0087 6.54124 22.7149 7.23589 23.2243 8.1042C23.7337 8.9725 24 9.93343 24 10.9638C24 11.9826 23.7569 12.9204 23.2706 13.7887C22.7844 14.657 22.1129 15.3517 21.2677 15.8726C20.4226 16.3936 19.4964 16.6715 18.4891 16.6946C18.3386 16.6946 18.2576 16.6252 18.2576 16.4978V14.958C18.2576 14.8191 18.3386 14.7496 18.4891 14.7496C19.4732 14.7033 20.3184 14.3097 21.013 13.5687C21.7077 12.8278 22.055 11.9595 22.055 10.9522C22.055 9.945 21.6729 9.0767 20.9204 8.33574C20.1679 7.59479 19.2764 7.22431 18.246 7.22431H16.3821C16.2431 7.22431 16.1737 7.15485 16.1737 7.0275L16.081 6.35601C15.9537 5.10564 15.4095 4.0521 14.4718 3.21852C13.5224 2.37337 12.4342 1.95658 11.1722 1.95658C9.91027 1.95658 8.79884 2.37337 7.87265 3.21852C6.93488 4.06368 6.41389 5.10564 6.29812 6.35601L6.21708 6.96961C6.21708 7.10854 6.13603 7.18958 5.98553 7.18958L5.37192 7.22431C4.411 7.34009 3.60058 7.75687 2.94067 8.4631C2.28075 9.16932 1.95658 10.0029 1.95658 10.9638C1.95658 11.9711 2.30391 12.8394 2.99855 13.5803C3.6932 14.3213 4.53835 14.7149 5.52243 14.7612C5.64978 14.7612 5.71925 14.8307 5.71925 14.9696V16.5094C5.71925 16.6368 5.64978 16.7062 5.52243 16.7062C3.97106 16.6368 2.66281 16.0463 1.58611 14.9349C0.509407 13.8234 0 12.5036 0 10.9638ZM6.19392 18.7091C6.19392 18.6628 6.2055 18.5818 6.24023 18.4776L8.12735 11.7974C8.19682 11.5774 8.32417 11.4038 8.49783 11.288C8.67149 11.1722 8.85673 11.1143 9.03039 11.1143C9.11143 11.1143 9.20405 11.1259 9.30825 11.1491C9.58611 11.1954 9.7945 11.3459 9.93343 11.5774C10.0724 11.809 10.1071 12.0637 10.026 12.3531L8.13893 18.987C8 19.4848 7.67583 19.7279 7.18958 19.7279C7.14327 19.7279 7.10854 19.7163 7.06223 19.7048C6.99276 19.6816 6.95803 19.67 6.94645 19.67C6.69175 19.6006 6.50651 19.4732 6.37916 19.288C6.25181 19.0912 6.19392 18.9059 6.19392 18.7091ZM9.22721 21.9624L12.0521 11.809C12.0984 11.589 12.2142 11.4153 12.3994 11.2996C12.5847 11.1838 12.7699 11.1259 12.9667 11.1259C13.0709 11.1259 13.1751 11.1375 13.2793 11.1606C13.534 11.2301 13.7192 11.3806 13.8466 11.6122C13.974 11.8437 13.9971 12.0868 13.9276 12.3531L11.1143 22.5181C11.068 22.7149 10.9638 22.877 10.7786 23.0159C10.5933 23.1548 10.4081 23.2243 10.1881 23.2243C10.0839 23.2243 9.97974 23.2012 9.8987 23.1664C9.66715 23.1085 9.47033 22.958 9.29667 22.7149C9.16932 22.5065 9.14616 22.2634 9.22721 21.9624ZM14.0087 18.7323C14.0087 18.686 14.0203 18.6049 14.055 18.466L15.9421 11.7858C16.0116 11.5658 16.1273 11.3922 16.2894 11.2764C16.4631 11.1606 16.6368 11.1027 16.822 11.1027C16.9146 11.1027 17.0188 11.1143 17.123 11.1375C17.3661 11.2069 17.5398 11.3227 17.6556 11.4964C17.7713 11.67 17.8292 11.8553 17.8292 12.0405C17.8292 12.0753 17.8177 12.1331 17.8061 12.2026C17.7945 12.2721 17.7829 12.3184 17.7829 12.3415L15.8958 18.9754C15.8495 19.1954 15.7453 19.3806 15.5716 19.508C15.398 19.6353 15.2012 19.7048 14.9812 19.7048L14.7033 19.6469C14.4718 19.5774 14.2981 19.4616 14.1708 19.2764C14.0666 19.1027 14.0087 18.9175 14.0087 18.7323Z" fill="currentColor" />
</symbol><symbol viewBox="0 0 24 24" fill="none" id="10d">
<path d="M0 14.2595C0 15.4425 0.409192 16.4655 1.23647 17.3195C2.06375 18.1735 3.06894 18.6271 4.26983 18.6805C4.36768 18.6805 4.42105 18.6271 4.42105 18.5293V17.3373C4.42105 17.2394 4.36768 17.1861 4.26983 17.1861C3.50482 17.1505 2.85545 16.8391 2.32172 16.2698C1.78799 15.7005 1.52113 15.0245 1.52113 14.2595C1.52113 13.53 1.7702 12.8895 2.27724 12.338C2.78428 11.7865 3.40697 11.4752 4.14529 11.3862L4.61675 11.3417C4.73239 11.3417 4.79466 11.2884 4.79466 11.1905L4.85693 10.7102C4.95478 9.74944 5.35508 8.93996 6.07561 8.29059C6.79615 7.64122 7.64122 7.31208 8.61082 7.31208C9.58043 7.31208 10.4255 7.64122 11.1549 8.29059C11.8844 8.93996 12.2936 9.74944 12.4003 10.7102L12.4626 11.2172C12.4626 11.3239 12.5159 11.3862 12.6138 11.3862H14.0549C14.8466 11.3862 15.5226 11.6709 16.1008 12.2402C16.679 12.8095 16.9637 13.4766 16.9637 14.2595C16.9637 15.0334 16.6968 15.7005 16.1631 16.2698C15.6294 16.8391 14.98 17.1416 14.2239 17.1861C14.1171 17.1861 14.0549 17.2394 14.0549 17.3373V18.5293C14.0549 18.6271 14.1082 18.6805 14.2239 18.6805C15.407 18.6449 16.4122 18.1913 17.2394 17.3373C18.0667 16.4744 18.4759 15.4514 18.4759 14.2683C18.4759 13.6279 18.3514 13.0319 18.1023 12.4804C18.7961 11.6175 19.1431 10.639 19.1431 9.53595C19.1431 8.69088 18.9296 7.90808 18.5115 7.18755C18.0934 6.46701 17.5241 5.8977 16.8036 5.47961C16.083 5.06153 15.3091 4.85693 14.4729 4.85693C13.0852 4.85693 11.9377 5.37287 11.0215 6.40474C10.2921 6.01334 9.49147 5.81764 8.61082 5.81764C7.35656 5.81764 6.23573 6.20904 5.26612 6.99185C4.29652 7.77465 3.67383 8.77094 3.39807 9.98073C2.41067 10.212 1.60119 10.7279 0.960712 11.5285C0.320237 12.3291 0 13.2365 0 14.2595ZM4.80356 20.3617C4.80356 20.513 4.84804 20.6553 4.94589 20.7976C5.04374 20.94 5.18606 21.0378 5.38176 21.0912C5.47961 21.109 5.55967 21.1268 5.62194 21.1268C5.96887 21.1268 6.20015 20.94 6.30689 20.5574L7.71238 15.3269C7.77465 15.1134 7.74796 14.9177 7.64122 14.7309C7.53447 14.5441 7.37435 14.4374 7.16975 14.3929C6.97405 14.3306 6.78725 14.3484 6.60934 14.4552C6.43143 14.553 6.30689 14.7042 6.24463 14.9088L4.83914 20.166C4.82135 20.2817 4.80356 20.344 4.80356 20.3617ZM7.12528 23.1016C7.12528 23.2706 7.16976 23.4218 7.25871 23.5641C7.34766 23.7064 7.49889 23.7954 7.72127 23.831C7.81912 23.8488 7.89918 23.8666 7.95256 23.8666C8.09488 23.8666 8.22832 23.8132 8.35285 23.7153C8.47739 23.6086 8.55745 23.4663 8.59303 23.2884L10.7279 15.3447C10.7813 15.1401 10.7635 14.9444 10.6657 14.7754C10.5678 14.6064 10.4166 14.4818 10.2209 14.4196C10.0163 14.3573 9.82061 14.3751 9.6427 14.4818C9.46479 14.5797 9.34025 14.7309 9.28688 14.9355L7.15196 22.8792C7.13417 23.0126 7.12528 23.0927 7.12528 23.1016ZM7.49889 3.32691C7.49889 3.5404 7.57005 3.71831 7.72127 3.86953L8.29948 4.45663C8.4685 4.59007 8.6553 4.65234 8.851 4.65234C9.03781 4.65234 9.21572 4.58117 9.36694 4.44774C9.51816 4.30541 9.59822 4.1364 9.59822 3.92291C9.59822 3.70941 9.52706 3.51371 9.38473 3.3536L8.81542 2.77539C8.6553 2.62417 8.47739 2.553 8.28169 2.553C8.0682 2.553 7.88139 2.63306 7.73017 2.78428C7.57895 2.93551 7.49889 3.12231 7.49889 3.32691ZM10.8169 20.3795C10.8169 20.5219 10.8614 20.6642 10.9503 20.7976C11.0393 20.9311 11.1816 21.0289 11.3595 21.0823C11.4574 21.1001 11.5374 21.1179 11.5819 21.1179C11.7331 21.1179 11.8844 21.0734 12.0178 20.9844C12.1512 20.8955 12.2402 20.7531 12.2847 20.5486L13.6901 15.318C13.7435 15.1134 13.7257 14.9177 13.6279 14.7487C13.53 14.5708 13.3788 14.4552 13.1831 14.3929C12.9696 14.3306 12.7828 14.3484 12.6049 14.4552C12.427 14.553 12.3113 14.7042 12.258 14.9088L10.8525 20.166C10.8347 20.2995 10.8169 20.3706 10.8169 20.3795ZM12.2669 7.26761C12.8984 6.67161 13.6279 6.37806 14.4729 6.37806C15.3447 6.37806 16.0919 6.6894 16.6968 7.30319C17.3106 7.91698 17.613 8.6642 17.613 9.54485C17.613 10.0964 17.4618 10.6479 17.1505 11.1905C16.2876 10.3277 15.2557 9.90067 14.046 9.90067H13.7524C13.5122 8.851 13.0141 7.97924 12.2669 7.26761ZM13.7079 2.59748C13.7079 2.80208 13.7791 2.97998 13.9303 3.12231C14.0815 3.26464 14.2595 3.3358 14.4729 3.3358C14.6775 3.3358 14.8554 3.26464 14.9978 3.13121C15.1401 2.98888 15.2113 2.81987 15.2113 2.60637V0.773907C15.2113 0.542624 15.1401 0.355819 15.0067 0.213491C14.8643 0.0711638 14.6953 0 14.4818 0C14.2595 0 14.0726 0.0711638 13.9303 0.222387C13.788 0.37361 13.7168 0.55152 13.7168 0.773907V2.59748H13.7079ZM18.6271 4.62565C18.6271 4.83914 18.7072 5.01705 18.8673 5.15048C18.9918 5.29281 19.152 5.36397 19.3566 5.38176C19.5612 5.39956 19.748 5.3195 19.9081 5.15048L21.189 3.87843C21.3491 3.72721 21.4203 3.5404 21.4203 3.31801C21.4203 3.10452 21.3491 2.91772 21.1979 2.77539C21.0467 2.63306 20.8688 2.5619 20.6553 2.5619C20.4685 2.5619 20.2995 2.63306 20.1394 2.78428L18.8673 4.06523C18.7072 4.21646 18.6271 4.40326 18.6271 4.62565ZM19.3477 15.1668C19.3477 15.3803 19.4188 15.5671 19.5612 15.7272L20.1394 16.2876C20.2995 16.4122 20.4774 16.4744 20.6731 16.4744L20.6909 16.4922C20.8955 16.4922 21.0645 16.4211 21.2068 16.2787C21.3491 16.1364 21.4203 15.9496 21.4203 15.7361C21.4203 15.5226 21.3403 15.3536 21.189 15.2202L20.6375 14.6331C20.4774 14.4907 20.2906 14.4196 20.086 14.4196C19.8814 14.4196 19.7035 14.4907 19.5612 14.642C19.4188 14.7932 19.3477 14.9533 19.3477 15.1668ZM20.6464 9.53595C20.6464 9.74944 20.7265 9.91846 20.8777 10.0608C21.0378 10.2209 21.2157 10.2921 21.4292 10.2921H23.235C23.4485 10.2921 23.6264 10.2209 23.7776 10.0697C23.9288 9.91846 24 9.74055 24 9.53595C24 9.32246 23.9288 9.14455 23.7776 8.99333C23.6264 8.84211 23.4485 8.76205 23.235 8.76205H21.4292C21.2157 8.76205 21.0378 8.84211 20.8777 8.99333C20.7176 9.14455 20.6464 9.32246 20.6464 9.53595Z" fill="currentColor" />
</symbol><symbol viewBox="0 0 24 25" fill="none" id="10n">
<path d="M0 12.7298C0 14.1893 0.515775 15.4513 1.53635 16.5048C2.55693 17.5583 3.80796 18.118 5.26749 18.1838C5.39918 18.1838 5.46502 18.118 5.46502 17.9973V16.5267C5.46502 16.406 5.39918 16.3402 5.26749 16.3402C4.32373 16.2853 3.52263 15.9122 2.8642 15.2099C2.20576 14.5075 1.87654 13.6845 1.87654 12.7298C1.87654 11.8189 2.18381 11.0288 2.80933 10.3484C3.43484 9.66804 4.20302 9.28395 5.11385 9.17421L5.69547 9.13031C5.83813 9.13031 5.91495 9.06447 5.91495 8.94376L5.99177 8.35117C6.11248 7.16598 6.61728 6.16735 7.50617 5.36625C8.39506 4.56516 9.44856 4.15912 10.6447 4.15912C11.8409 4.15912 12.8834 4.56516 13.7833 5.36625C14.6831 6.16735 15.1879 7.16598 15.3196 8.35117L15.4074 8.97668C15.4074 9.10837 15.4733 9.17421 15.594 9.17421H17.3717C18.3484 9.17421 19.2044 9.52538 19.9177 10.2277C20.631 10.93 20.9931 11.7641 20.9931 12.7298C20.9931 13.6845 20.6639 14.5075 20.0055 15.2099C19.347 15.9122 18.546 16.2853 17.6022 16.3402C17.4486 16.3402 17.3717 16.406 17.3717 16.5267V17.9973C17.3717 18.118 17.4486 18.1838 17.6022 18.1838C19.0617 18.1399 20.3018 17.5802 21.3114 16.5267C22.332 15.4623 22.8368 14.2003 22.8368 12.7407C22.8368 11.775 22.5844 10.8752 22.0905 10.0412C22.9794 9.24005 23.5501 8.28532 23.8244 7.16598L23.9781 6.37586C23.989 6.36488 24 6.34293 24 6.29904C24 6.22222 23.9451 6.15638 23.8244 6.12346L23.2099 5.92593C22.5844 5.75034 22.0466 5.44307 21.6077 5.01509C21.1577 4.58711 20.8395 4.13717 20.6529 3.66529C20.4664 3.19342 20.3676 2.72154 20.3676 2.26063C20.3457 2.0192 20.3786 1.71193 20.4554 1.36077L20.6091 0.691358C20.6529 0.581618 20.6091 0.493827 20.4554 0.427983L19.5885 0.164609C19.0946 0.0548693 18.6337 0 18.1948 0C17.7778 0 17.3608 0.0438953 16.9438 0.142661C16.5158 0.241426 16.0768 0.384088 15.6269 0.592593C15.177 0.790123 14.738 1.08642 14.31 1.47051C13.882 1.85459 13.5199 2.29355 13.2126 2.80933C12.3128 2.48011 11.4568 2.3155 10.6557 2.3155C9.10837 2.3155 7.72565 2.79835 6.52949 3.76406C5.33333 4.72977 4.55418 5.95885 4.21399 7.46228C2.99588 7.7476 1.99726 8.37311 1.20713 9.36077C0.395062 10.3374 0 11.4678 0 12.7298ZM6.10151 20.2359C6.10151 20.4225 6.15638 20.5981 6.27709 20.7737C6.3978 20.9492 6.57339 21.07 6.81481 21.1358C7.06721 21.2126 7.30864 21.1907 7.51715 21.0919C7.73663 20.9822 7.87929 20.7846 7.9561 20.4774L9.52538 14.0357C9.59122 13.7613 9.5583 13.5089 9.43759 13.3004C9.3059 13.0809 9.11934 12.9492 8.86694 12.8944C8.62551 12.8176 8.39506 12.8395 8.17558 12.9712C7.9561 13.0919 7.80247 13.2785 7.72565 13.5309L6.1454 20.0055C6.1454 20.0165 6.13443 20.0494 6.12346 20.1043C6.11248 20.1591 6.10151 20.203 6.10151 20.2359ZM8.96571 23.6049C8.96571 23.7805 9.02058 23.9451 9.13031 24.1097C9.24005 24.2743 9.40466 24.3841 9.62414 24.4499C9.74486 24.4829 9.83265 24.4938 9.88752 24.4938C10.3704 24.4938 10.6667 24.2743 10.7874 23.8464L13.2565 14.0466C13.3224 13.7833 13.3004 13.5418 13.1797 13.3333C13.059 13.1248 12.8724 12.9822 12.631 12.9053C12.3786 12.8285 12.1372 12.8505 11.9067 12.9822C11.6763 13.1139 11.5336 13.2894 11.4787 13.5309L8.99863 23.3196C8.99863 23.3306 8.99863 23.3745 8.98765 23.4513C8.96571 23.5171 8.96571 23.572 8.96571 23.6049ZM13.5309 20.3237C13.5309 20.7188 13.7613 20.9822 14.2222 21.1358C14.3759 21.1797 14.4856 21.2016 14.5514 21.2016C14.6722 21.2016 14.8038 21.1797 14.9355 21.1248C15.166 21.037 15.3086 20.8176 15.3635 20.4883L16.9328 14.0466C16.9986 13.7833 16.9767 13.5528 16.845 13.3333C16.7243 13.1248 16.5377 12.9822 16.2853 12.9053C16.0329 12.8285 15.7915 12.8505 15.561 12.9822C15.3306 13.1029 15.1989 13.2894 15.144 13.5418L13.5748 20.0165C13.5528 20.192 13.5309 20.3018 13.5309 20.3237ZM14.8258 3.80796C15.177 3.17147 15.6488 2.68861 16.2634 2.34842C16.8669 2.0192 17.5144 1.8546 18.1948 1.86557C18.3265 1.86557 18.4252 1.86557 18.4911 1.87654V2.20576C18.4801 3.27023 18.7545 4.26886 19.3361 5.22359C19.9067 6.16735 20.7188 6.89163 21.7613 7.38546C21.5199 7.89026 21.2236 8.27435 20.8944 8.55967C19.8848 7.72565 18.7106 7.31962 17.3498 7.31962H17.0096C16.7133 5.92593 15.989 4.76269 14.8258 3.80796Z" fill="currentColor" />
</symbol><symbol viewBox="0 0 24 24" fill="none" id="11d">
<path d="M0 10.9575C0 12.2432 0.382239 13.39 1.14672 14.3977C1.9112 15.4054 2.89575 16.1004 4.11197 16.471L3.35907 18.417C3.32432 18.5792 3.38224 18.6718 3.52124 18.6718H5.98842L4.78378 23.0502H5.10811L9.70656 17.0039C9.7529 16.9575 9.75289 16.8996 9.72973 16.8417C9.70656 16.7838 9.64865 16.7606 9.56757 16.7606H7.04247L9.91506 11.3861C9.98455 11.2239 9.93822 11.1429 9.7529 11.1429H6.34749C6.24324 11.1429 6.15058 11.2008 6.09266 11.305L4.83012 14.6293C4.00772 14.4208 3.32432 13.9691 2.77992 13.2857C2.23552 12.6023 1.96911 11.8263 1.96911 10.9575C1.96911 9.99614 2.29344 9.16216 2.94208 8.4556C3.59073 7.74903 4.40154 7.34363 5.37452 7.2278L5.97683 7.14672C6.12741 7.14672 6.20849 7.07722 6.20849 6.94981L6.28958 6.34749C6.40541 5.09653 6.92664 4.04247 7.86486 3.19691C8.80309 2.35135 9.90347 1.92278 11.166 1.92278C12.4286 1.92278 13.529 2.35135 14.4672 3.19691C15.417 4.04247 15.9498 5.09653 16.0888 6.34749L16.1583 7.01931C16.1583 7.1583 16.2278 7.2278 16.3784 7.2278H18.2432C19.2973 7.2278 20.1892 7.59846 20.9305 8.32819C21.6718 9.05792 22.0425 9.93822 22.0425 10.9691C22.0425 11.9537 21.695 12.8108 21.0116 13.529C20.3282 14.2471 19.4826 14.6409 18.4749 14.722C18.3243 14.722 18.2432 14.7915 18.2432 14.9421V16.529C18.2432 16.6564 18.3243 16.7259 18.4749 16.7259C19.2278 16.7027 19.9459 16.529 20.6293 16.2162C21.3127 15.9035 21.9035 15.4865 22.39 14.9768C22.8764 14.4672 23.2703 13.8649 23.5598 13.1583C23.8494 12.4633 24 11.7336 24 10.9807C24 9.93822 23.7452 8.97683 23.2239 8.09652C22.7027 7.21622 22.0077 6.52124 21.1274 6.01158C20.2471 5.50193 19.2857 5.2471 18.2548 5.2471H17.8842C17.5019 3.70656 16.6911 2.44402 15.4402 1.47104C14.1892 0.49807 12.7761 0 11.1776 0C9.5444 0 8.08494 0.509653 6.82239 1.51737C5.55985 2.5251 4.74903 3.82239 4.38996 5.40927C3.11583 5.71042 2.06178 6.37066 1.2278 7.41313C0.393822 8.4556 0 9.62548 0 10.9575ZM9.45174 22.3784C9.45174 22.5637 9.50965 22.7374 9.62548 22.9112C9.74131 23.0849 9.92664 23.2124 10.1583 23.2819C10.3205 23.3166 10.4131 23.3398 10.4479 23.3398C10.5521 23.3398 10.6911 23.305 10.888 23.2239C11.1313 23.1197 11.2934 22.9112 11.3745 22.6216L11.6988 21.4054C11.7683 21.1506 11.7452 20.9073 11.6062 20.6757C11.4672 20.444 11.2703 20.2934 10.9923 20.2124C10.7375 20.1429 10.4942 20.166 10.2625 20.305C10.0309 20.444 9.86873 20.6409 9.78764 20.9189L9.4749 22.0772C9.46332 22.2741 9.45174 22.3784 9.45174 22.3784ZM11.0039 16.8533C11.0039 17.0154 11.0618 17.1892 11.1776 17.3629C11.2934 17.5367 11.4672 17.6641 11.6988 17.7452C11.9537 17.8263 12.2085 17.8147 12.4402 17.6873C12.6718 17.5598 12.8224 17.3629 12.9035 17.0849L13.251 15.8803C13.3205 15.6255 13.2857 15.3822 13.1583 15.1506C13.0193 14.9189 12.8108 14.7568 12.5444 14.6757C12.278 14.6062 12.0347 14.6293 11.7915 14.7683C11.5483 14.9073 11.3977 15.1042 11.3166 15.3707L11.0386 16.5405C11.0154 16.7375 11.0039 16.8417 11.0039 16.8533ZM14.2703 18.7645C14.2703 18.9614 14.3282 19.1583 14.4556 19.3552C14.583 19.5521 14.7683 19.6795 15 19.7606C15.0232 19.7606 15.0695 19.7722 15.139 19.7838C15.1969 19.7954 15.2432 19.8069 15.278 19.8069C15.4286 19.8069 15.5792 19.7838 15.7181 19.7143C15.9382 19.6332 16.1004 19.4131 16.1931 19.0541L16.4826 17.8842C16.5637 17.6178 16.5405 17.3629 16.4131 17.1197C16.2857 16.8764 16.0888 16.7143 15.834 16.6332C15.5444 16.5637 15.278 16.5985 15.0463 16.7259C14.8147 16.8649 14.6641 17.0734 14.6178 17.3398L14.305 18.5328C14.2819 18.6023 14.2703 18.6834 14.2703 18.7645ZM15.8456 13.2162C15.834 13.4015 15.8919 13.5753 16.0193 13.7606C16.1467 13.9459 16.332 14.0849 16.5869 14.2008C16.6795 14.2471 16.7722 14.2703 16.888 14.2703C17.0154 14.2703 17.1429 14.2355 17.2819 14.1776C17.5251 14.0618 17.6873 13.8417 17.7915 13.5174L18.1274 12.3243C18.1506 12.1737 18.1622 12.0927 18.1622 12.0695C18.1622 11.8726 18.1042 11.6873 17.9768 11.5019C17.8494 11.3166 17.6641 11.1892 17.4093 11.1197C17.3861 11.1197 17.3398 11.1081 17.2819 11.0965C17.2124 11.0618 17.166 11.0618 17.1313 11.0618C16.9344 11.0618 16.749 11.1197 16.5637 11.2355C16.3784 11.3514 16.251 11.5367 16.1815 11.7915L15.8687 12.9614C15.8571 13.0541 15.8456 13.1351 15.8456 13.2162Z" fill="currentColor" />
</symbol><symbol viewBox="0 0 24 24" fill="none" id="11n">
<path d="M0 10.9575C0 12.2432 0.382239 13.39 1.14672 14.3977C1.9112 15.4054 2.89575 16.1004 4.11197 16.471L3.35907 18.417C3.32432 18.5792 3.38224 18.6718 3.52124 18.6718H5.98842L4.78378 23.0502H5.10811L9.70656 17.0039C9.7529 16.9575 9.75289 16.8996 9.72973 16.8417C9.70656 16.7838 9.64865 16.7606 9.56757 16.7606H7.04247L9.91506 11.3861C9.98455 11.2239 9.93822 11.1429 9.7529 11.1429H6.34749C6.24324 11.1429 6.15058 11.2008 6.09266 11.305L4.83012 14.6293C4.00772 14.4208 3.32432 13.9691 2.77992 13.2857C2.23552 12.6023 1.96911 11.8263 1.96911 10.9575C1.96911 9.99614 2.29344 9.16216 2.94208 8.4556C3.59073 7.74903 4.40154 7.34363 5.37452 7.2278L5.97683 7.14672C6.12741 7.14672 6.20849 7.07722 6.20849 6.94981L6.28958 6.34749C6.40541 5.09653 6.92664 4.04247 7.86486 3.19691C8.80309 2.35135 9.90347 1.92278 11.166 1.92278C12.4286 1.92278 13.529 2.35135 14.4672 3.19691C15.417 4.04247 15.9498 5.09653 16.0888 6.34749L16.1583 7.01931C16.1583 7.1583 16.2278 7.2278 16.3784 7.2278H18.2432C19.2973 7.2278 20.1892 7.59846 20.9305 8.32819C21.6718 9.05792 22.0425 9.93822 22.0425 10.9691C22.0425 11.9537 21.695 12.8108 21.0116 13.529C20.3282 14.2471 19.4826 14.6409 18.4749 14.722C18.3243 14.722 18.2432 14.7915 18.2432 14.9421V16.529C18.2432 16.6564 18.3243 16.7259 18.4749 16.7259C19.2278 16.7027 19.9459 16.529 20.6293 16.2162C21.3127 15.9035 21.9035 15.4865 22.39 14.9768C22.8764 14.4672 23.2703 13.8649 23.5598 13.1583C23.8494 12.4633 24 11.7336 24 10.9807C24 9.93822 23.7452 8.97683 23.2239 8.09652C22.7027 7.21622 22.0077 6.52124 21.1274 6.01158C20.2471 5.50193 19.2857 5.2471 18.2548 5.2471H17.8842C17.5019 3.70656 16.6911 2.44402 15.4402 1.47104C14.1892 0.49807 12.7761 0 11.1776 0C9.5444 0 8.08494 0.509653 6.82239 1.51737C5.55985 2.5251 4.74903 3.82239 4.38996 5.40927C3.11583 5.71042 2.06178 6.37066 1.2278 7.41313C0.393822 8.4556 0 9.62548 0 10.9575ZM9.45174 22.3784C9.45174 22.5637 9.50965 22.7374 9.62548 22.9112C9.74131 23.0849 9.92664 23.2124 10.1583 23.2819C10.3205 23.3166 10.4131 23.3398 10.4479 23.3398C10.5521 23.3398 10.6911 23.305 10.888 23.2239C11.1313 23.1197 11.2934 22.9112 11.3745 22.6216L11.6988 21.4054C11.7683 21.1506 11.7452 20.9073 11.6062 20.6757C11.4672 20.444 11.2703 20.2934 10.9923 20.2124C10.7375 20.1429 10.4942 20.166 10.2625 20.305C10.0309 20.444 9.86873 20.6409 9.78764 20.9189L9.4749 22.0772C9.46332 22.2741 9.45174 22.3784 9.45174 22.3784ZM11.0039 16.8533C11.0039 17.0154 11.0618 17.1892 11.1776 17.3629C11.2934 17.5367 11.4672 17.6641 11.6988 17.7452C11.9537 17.8263 12.2085 17.8147 12.4402 17.6873C12.6718 17.5598 12.8224 17.3629 12.9035 17.0849L13.251 15.8803C13.3205 15.6255 13.2857 15.3822 13.1583 15.1506C13.0193 14.9189 12.8108 14.7568 12.5444 14.6757C12.278 14.6062 12.0347 14.6293 11.7915 14.7683C11.5483 14.9073 11.3977 15.1042 11.3166 15.3707L11.0386 16.5405C11.0154 16.7375 11.0039 16.8417 11.0039 16.8533ZM14.2703 18.7645C14.2703 18.9614 14.3282 19.1583 14.4556 19.3552C14.583 19.5521 14.7683 19.6795 15 19.7606C15.0232 19.7606 15.0695 19.7722 15.139 19.7838C15.1969 19.7954 15.2432 19.8069 15.278 19.8069C15.4286 19.8069 15.5792 19.7838 15.7181 19.7143C15.9382 19.6332 16.1004 19.4131 16.1931 19.0541L16.4826 17.8842C16.5637 17.6178 16.5405 17.3629 16.4131 17.1197C16.2857 16.8764 16.0888 16.7143 15.834 16.6332C15.5444 16.5637 15.278 16.5985 15.0463 16.7259C14.8147 16.8649 14.6641 17.0734 14.6178 17.3398L14.305 18.5328C14.2819 18.6023 14.2703 18.6834 14.2703 18.7645ZM15.8456 13.2162C15.834 13.4015 15.8919 13.5753 16.0193 13.7606C16.1467 13.9459 16.332 14.0849 16.5869 14.2008C16.6795 14.2471 16.7722 14.2703 16.888 14.2703C17.0154 14.2703 17.1429 14.2355 17.2819 14.1776C17.5251 14.0618 17.6873 13.8417 17.7915 13.5174L18.1274 12.3243C18.1506 12.1737 18.1622 12.0927 18.1622 12.0695C18.1622 11.8726 18.1042 11.6873 17.9768 11.5019C17.8494 11.3166 17.6641 11.1892 17.4093 11.1197C17.3861 11.1197 17.3398 11.1081 17.2819 11.0965C17.2124 11.0618 17.166 11.0618 17.1313 11.0618C16.9344 11.0618 16.749 11.1197 16.5637 11.2355C16.3784 11.3514 16.251 11.5367 16.1815 11.7915L15.8687 12.9614C15.8571 13.0541 15.8456 13.1351 15.8456 13.2162Z" fill="currentColor" />
</symbol><symbol viewBox="0 0 24 24" fill="none" id="13d">
<path d="M0 11.0208C0 9.67649 0.405601 8.49445 1.22839 7.45147C2.05118 6.4085 3.10575 5.73636 4.40367 5.41188C4.76292 3.83583 5.57412 2.5379 6.83728 1.51811C8.10043 0.49831 9.54901 0 11.183 0C12.7822 0 14.196 0.49831 15.4476 1.48334C16.6992 2.46837 17.5104 3.74312 17.8812 5.29599H18.2521C19.2834 5.29599 20.2453 5.55094 21.126 6.06084C22.0068 6.57074 22.7137 7.26606 23.2236 8.14679C23.7335 9.02752 24 9.98938 24 11.0208C24 12.5505 23.4669 13.8831 22.3892 14.9841C21.323 16.0966 20.0135 16.676 18.4722 16.7224C18.3216 16.7224 18.2405 16.6528 18.2405 16.5254V14.9841C18.2405 14.845 18.3216 14.7755 18.4722 14.7755C19.4573 14.7291 20.3032 14.3351 20.9986 13.5934C21.6939 12.8518 22.0415 11.9942 22.0415 11.0092C22.0415 9.97779 21.6707 9.09705 20.9174 8.3438C20.1642 7.59054 19.2719 7.2197 18.2289 7.2197H16.3631C16.224 7.2197 16.1545 7.15017 16.1545 7.02269L16.0618 6.35056C15.9343 5.09899 15.3897 4.04442 14.451 3.19845C13.5007 2.35249 12.4114 1.92371 11.1482 1.92371C9.87349 1.92371 8.77257 2.35249 7.8339 3.21004C6.89522 4.0676 6.36214 5.12216 6.24626 6.39691L6.17673 6.97634C6.17673 7.1154 6.09561 7.19652 5.94495 7.19652L5.33076 7.27764C4.3689 7.35876 3.5577 7.75278 2.89715 8.48286C2.2366 9.21294 1.91212 10.0473 1.91212 11.0208C1.91212 12.0058 2.25978 12.8634 2.95509 13.605C3.65041 14.3467 4.49638 14.7291 5.48141 14.7871C5.60888 14.7871 5.67842 14.8566 5.67842 14.9957V16.5369C5.67842 16.6644 5.60888 16.7339 5.48141 16.7339C3.92854 16.6876 2.61902 16.1082 1.54128 14.9957C0.533076 13.8831 0 12.5505 0 11.0208ZM7.37035 15.7373C7.37035 15.4824 7.46306 15.2506 7.64848 15.0652C7.8339 14.8798 8.05408 14.7871 8.33221 14.7871C8.59874 14.7871 8.83052 14.8798 9.01593 15.0652C9.20135 15.2506 9.29406 15.4824 9.29406 15.7373C9.29406 16.0155 9.20135 16.2472 9.01593 16.4326C8.83052 16.6296 8.61033 16.7224 8.33221 16.7224C8.06567 16.7224 7.8339 16.6296 7.64848 16.4326C7.46306 16.2472 7.37035 16.0155 7.37035 15.7373ZM7.37035 19.944C7.37035 19.6659 7.46306 19.4341 7.64848 19.2487C7.8339 19.0748 8.05408 18.9821 8.32062 18.9821C8.58716 18.9821 8.81893 19.0748 9.00435 19.2487C9.18976 19.4341 9.28247 19.6543 9.28247 19.9324C9.28247 20.2105 9.18976 20.4307 9.00435 20.6161C8.81893 20.8015 8.59874 20.8827 8.32062 20.8827C8.05408 20.8827 7.82231 20.79 7.63689 20.6161C7.46306 20.4423 7.37035 20.2105 7.37035 19.944ZM11.0671 17.9739C11.0671 17.7074 11.1598 17.464 11.3568 17.2554C11.5422 17.07 11.7624 16.9773 12.0174 16.9773C12.2839 16.9773 12.5157 17.0816 12.7127 17.2786C12.9097 17.4756 13.014 17.7074 13.014 17.9739C13.014 18.2405 12.9213 18.4722 12.7243 18.6692C12.5273 18.8662 12.2955 18.959 12.0174 18.959C11.7508 18.959 11.5307 18.8662 11.3452 18.6692C11.1598 18.4722 11.0671 18.2405 11.0671 17.9739ZM11.0671 13.7788C11.0671 13.5123 11.1598 13.2805 11.3568 13.0835C11.5654 12.8981 11.7856 12.8054 12.0174 12.8054C12.2955 12.8054 12.5273 12.8981 12.7243 13.0951C12.9213 13.2921 13.014 13.5123 13.014 13.7904C13.014 14.057 12.9213 14.2887 12.7243 14.4742C12.5273 14.6596 12.2955 14.7523 12.0174 14.7523C11.7508 14.7523 11.5307 14.6596 11.3452 14.4742C11.1598 14.2772 11.0671 14.0454 11.0671 13.7788ZM11.0671 22.2154C11.0671 21.9488 11.1598 21.717 11.3568 21.5084C11.5422 21.323 11.7624 21.2303 12.0174 21.2303C12.2955 21.2303 12.5273 21.323 12.7243 21.52C12.9213 21.717 13.014 21.9488 13.014 22.2154C13.014 22.4819 12.9213 22.7137 12.7243 22.8991C12.5273 23.0845 12.2955 23.1772 12.0174 23.1772C11.7508 23.1772 11.5307 23.0845 11.3452 22.8991C11.1598 22.7021 11.0671 22.4819 11.0671 22.2154ZM14.7986 15.7373C14.7986 15.4824 14.8914 15.2622 15.0884 15.0652C15.2854 14.8682 15.5171 14.7755 15.7837 14.7755C16.0502 14.7755 16.282 14.8682 16.4674 15.0536C16.6528 15.239 16.7455 15.4708 16.7455 15.7257C16.7455 16.0039 16.6528 16.2356 16.4674 16.4211C16.282 16.6181 16.0618 16.7108 15.7837 16.7108C15.5056 16.7108 15.2738 16.6181 15.0884 16.4211C14.9029 16.2356 14.7986 16.0039 14.7986 15.7373ZM14.7986 19.944C14.7986 19.689 14.8914 19.4573 15.0884 19.2487C15.2738 19.0748 15.5056 18.9821 15.7837 18.9821C16.0618 18.9821 16.282 19.0748 16.4674 19.2487C16.6528 19.4225 16.7339 19.6543 16.7339 19.9324C16.7339 20.2105 16.6412 20.4307 16.4674 20.6161C16.282 20.8015 16.0618 20.8827 15.7837 20.8827C15.5056 20.8827 15.2738 20.79 15.0884 20.6045C14.9029 20.4307 14.7986 20.2105 14.7986 19.944Z" fill="currentColor" />
</symbol><symbol viewBox="0 0 24 24" fill="none" id="13n">
<path d="M0 11.0208C0 9.67649 0.405601 8.49445 1.22839 7.45147C2.05118 6.4085 3.10575 5.73636 4.40367 5.41188C4.76292 3.83583 5.57412 2.5379 6.83728 1.51811C8.10043 0.49831 9.54901 0 11.183 0C12.7822 0 14.196 0.49831 15.4476 1.48334C16.6992 2.46837 17.5104 3.74312 17.8812 5.29599H18.2521C19.2834 5.29599 20.2453 5.55094 21.126 6.06084C22.0068 6.57074 22.7137 7.26606 23.2236 8.14679C23.7335 9.02752 24 9.98938 24 11.0208C24 12.5505 23.4669 13.8831 22.3892 14.9841C21.323 16.0966 20.0135 16.676 18.4722 16.7224C18.3216 16.7224 18.2405 16.6528 18.2405 16.5254V14.9841C18.2405 14.845 18.3216 14.7755 18.4722 14.7755C19.4573 14.7291 20.3032 14.3351 20.9986 13.5934C21.6939 12.8518 22.0415 11.9942 22.0415 11.0092C22.0415 9.97779 21.6707 9.09705 20.9174 8.3438C20.1642 7.59054 19.2719 7.2197 18.2289 7.2197H16.3631C16.224 7.2197 16.1545 7.15017 16.1545 7.02269L16.0618 6.35056C15.9343 5.09899 15.3897 4.04442 14.451 3.19845C13.5007 2.35249 12.4114 1.92371 11.1482 1.92371C9.87349 1.92371 8.77257 2.35249 7.8339 3.21004C6.89522 4.0676 6.36214 5.12216 6.24626 6.39691L6.17673 6.97634C6.17673 7.1154 6.09561 7.19652 5.94495 7.19652L5.33076 7.27764C4.3689 7.35876 3.5577 7.75278 2.89715 8.48286C2.2366 9.21294 1.91212 10.0473 1.91212 11.0208C1.91212 12.0058 2.25978 12.8634 2.95509 13.605C3.65041 14.3467 4.49638 14.7291 5.48141 14.7871C5.60888 14.7871 5.67842 14.8566 5.67842 14.9957V16.5369C5.67842 16.6644 5.60888 16.7339 5.48141 16.7339C3.92854 16.6876 2.61902 16.1082 1.54128 14.9957C0.533076 13.8831 0 12.5505 0 11.0208ZM7.37035 15.7373C7.37035 15.4824 7.46306 15.2506 7.64848 15.0652C7.8339 14.8798 8.05408 14.7871 8.33221 14.7871C8.59874 14.7871 8.83052 14.8798 9.01593 15.0652C9.20135 15.2506 9.29406 15.4824 9.29406 15.7373C9.29406 16.0155 9.20135 16.2472 9.01593 16.4326C8.83052 16.6296 8.61033 16.7224 8.33221 16.7224C8.06567 16.7224 7.8339 16.6296 7.64848 16.4326C7.46306 16.2472 7.37035 16.0155 7.37035 15.7373ZM7.37035 19.944C7.37035 19.6659 7.46306 19.4341 7.64848 19.2487C7.8339 19.0748 8.05408 18.9821 8.32062 18.9821C8.58716 18.9821 8.81893 19.0748 9.00435 19.2487C9.18976 19.4341 9.28247 19.6543 9.28247 19.9324C9.28247 20.2105 9.18976 20.4307 9.00435 20.6161C8.81893 20.8015 8.59874 20.8827 8.32062 20.8827C8.05408 20.8827 7.82231 20.79 7.63689 20.6161C7.46306 20.4423 7.37035 20.2105 7.37035 19.944ZM11.0671 17.9739C11.0671 17.7074 11.1598 17.464 11.3568 17.2554C11.5422 17.07 11.7624 16.9773 12.0174 16.9773C12.2839 16.9773 12.5157 17.0816 12.7127 17.2786C12.9097 17.4756 13.014 17.7074 13.014 17.9739C13.014 18.2405 12.9213 18.4722 12.7243 18.6692C12.5273 18.8662 12.2955 18.959 12.0174 18.959C11.7508 18.959 11.5307 18.8662 11.3452 18.6692C11.1598 18.4722 11.0671 18.2405 11.0671 17.9739ZM11.0671 13.7788C11.0671 13.5123 11.1598 13.2805 11.3568 13.0835C11.5654 12.8981 11.7856 12.8054 12.0174 12.8054C12.2955 12.8054 12.5273 12.8981 12.7243 13.0951C12.9213 13.2921 13.014 13.5123 13.014 13.7904C13.014 14.057 12.9213 14.2887 12.7243 14.4742C12.5273 14.6596 12.2955 14.7523 12.0174 14.7523C11.7508 14.7523 11.5307 14.6596 11.3452 14.4742C11.1598 14.2772 11.0671 14.0454 11.0671 13.7788ZM11.0671 22.2154C11.0671 21.9488 11.1598 21.717 11.3568 21.5084C11.5422 21.323 11.7624 21.2303 12.0174 21.2303C12.2955 21.2303 12.5273 21.323 12.7243 21.52C12.9213 21.717 13.014 21.9488 13.014 22.2154C13.014 22.4819 12.9213 22.7137 12.7243 22.8991C12.5273 23.0845 12.2955 23.1772 12.0174 23.1772C11.7508 23.1772 11.5307 23.0845 11.3452 22.8991C11.1598 22.7021 11.0671 22.4819 11.0671 22.2154ZM14.7986 15.7373C14.7986 15.4824 14.8914 15.2622 15.0884 15.0652C15.2854 14.8682 15.5171 14.7755 15.7837 14.7755C16.0502 14.7755 16.282 14.8682 16.4674 15.0536C16.6528 15.239 16.7455 15.4708 16.7455 15.7257C16.7455 16.0039 16.6528 16.2356 16.4674 16.4211C16.282 16.6181 16.0618 16.7108 15.7837 16.7108C15.5056 16.7108 15.2738 16.6181 15.0884 16.4211C14.9029 16.2356 14.7986 16.0039 14.7986 15.7373ZM14.7986 19.944C14.7986 19.689 14.8914 19.4573 15.0884 19.2487C15.2738 19.0748 15.5056 18.9821 15.7837 18.9821C16.0618 18.9821 16.282 19.0748 16.4674 19.2487C16.6528 19.4225 16.7339 19.6543 16.7339 19.9324C16.7339 20.2105 16.6412 20.4307 16.4674 20.6161C16.282 20.8015 16.0618 20.8827 15.7837 20.8827C15.5056 20.8827 15.2738 20.79 15.0884 20.6045C14.9029 20.4307 14.7986 20.2105 14.7986 19.944Z" fill="currentColor" />
</symbol><symbol viewBox="0 0 24 9" fill="none" id="50d">
<path d="M0 4.26461C0 4.00966 0.0927089 3.78947 0.266538 3.61564C0.451956 3.44182 0.672139 3.3607 0.927088 3.3607H14.9261C15.1811 3.3607 15.3897 3.44182 15.5519 3.61564C15.7141 3.78947 15.8069 4.00966 15.8069 4.2762C15.8069 4.53114 15.7257 4.73974 15.5519 4.90198C15.3897 5.06422 15.1811 5.15693 14.9261 5.15693H0.927088C0.672139 5.15693 0.440367 5.07581 0.266538 4.90198C0.0811203 4.72815 0 4.51956 0 4.26461ZM2.79285 0.903912C2.79285 0.648963 2.88556 0.440368 3.05939 0.266538C3.23322 0.0927094 3.4534 0 3.70835 0H17.719C17.9623 0 18.1709 0.0927094 18.3448 0.266538C18.5186 0.440368 18.5997 0.648963 18.5997 0.903912C18.5997 1.15886 18.5186 1.36746 18.3448 1.55287C18.1709 1.7267 17.9623 1.81941 17.719 1.81941H3.71994C3.46499 1.81941 3.24481 1.7267 3.07098 1.55287C2.89715 1.37904 2.79285 1.15886 2.79285 0.903912ZM4.67021 7.55577C4.67021 7.31241 4.76292 7.10381 4.94833 6.92998C5.11057 6.76774 5.31917 6.67504 5.57412 6.67504H19.5963C19.8513 6.67504 20.0715 6.75616 20.2453 6.92998C20.4191 7.09223 20.5002 7.30082 20.5002 7.55577C20.5002 7.81072 20.4075 8.0309 20.2337 8.20473C20.0599 8.37856 19.8397 8.47127 19.5847 8.47127H5.57412C5.31917 8.47127 5.11057 8.37856 4.92516 8.20473C4.73974 8.0309 4.67021 7.81072 4.67021 7.55577ZM16.931 4.26461C16.931 3.99807 17.0121 3.77789 17.1859 3.60406C17.3597 3.43023 17.5799 3.34911 17.8465 3.34911H23.0845C23.351 3.34911 23.5712 3.43023 23.7451 3.60406C23.9189 3.77789 24 3.99807 24 4.25302C24 4.50797 23.9189 4.71656 23.7451 4.8788C23.5712 5.04104 23.351 5.13375 23.0961 5.13375H17.858C17.5915 5.13375 17.3713 5.05263 17.1975 4.8788C17.0121 4.72815 16.931 4.51956 16.931 4.26461Z" fill="currentColor" />
</symbol><symbol viewBox="0 0 24 9" fill="none" id="50n">
<path d="M0 4.26461C0 4.00966 0.0927089 3.78947 0.266538 3.61564C0.451956 3.44182 0.672139 3.3607 0.927088 3.3607H14.9261C15.1811 3.3607 15.3897 3.44182 15.5519 3.61564C15.7141 3.78947 15.8069 4.00966 15.8069 4.2762C15.8069 4.53114 15.7257 4.73974 15.5519 4.90198C15.3897 5.06422 15.1811 5.15693 14.9261 5.15693H0.927088C0.672139 5.15693 0.440367 5.07581 0.266538 4.90198C0.0811203 4.72815 0 4.51956 0 4.26461ZM2.79285 0.903912C2.79285 0.648963 2.88556 0.440368 3.05939 0.266538C3.23322 0.0927094 3.4534 0 3.70835 0H17.719C17.9623 0 18.1709 0.0927094 18.3448 0.266538C18.5186 0.440368 18.5997 0.648963 18.5997 0.903912C18.5997 1.15886 18.5186 1.36746 18.3448 1.55287C18.1709 1.7267 17.9623 1.81941 17.719 1.81941H3.71994C3.46499 1.81941 3.24481 1.7267 3.07098 1.55287C2.89715 1.37904 2.79285 1.15886 2.79285 0.903912ZM4.67021 7.55577C4.67021 7.31241 4.76292 7.10381 4.94833 6.92998C5.11057 6.76774 5.31917 6.67504 5.57412 6.67504H19.5963C19.8513 6.67504 20.0715 6.75616 20.2453 6.92998C20.4191 7.09223 20.5002 7.30082 20.5002 7.55577C20.5002 7.81072 20.4075 8.0309 20.2337 8.20473C20.0599 8.37856 19.8397 8.47127 19.5847 8.47127H5.57412C5.31917 8.47127 5.11057 8.37856 4.92516 8.20473C4.73974 8.0309 4.67021 7.81072 4.67021 7.55577ZM16.931 4.26461C16.931 3.99807 17.0121 3.77789 17.1859 3.60406C17.3597 3.43023 17.5799 3.34911 17.8465 3.34911H23.0845C23.351 3.34911 23.5712 3.43023 23.7451 3.60406C23.9189 3.77789 24 3.99807 24 4.25302C24 4.50797 23.9189 4.71656 23.7451 4.8788C23.5712 5.04104 23.351 5.13375 23.0961 5.13375H17.858C17.5915 5.13375 17.3713 5.05263 17.1975 4.8788C17.0121 4.72815 16.931 4.51956 16.931 4.26461Z" fill="currentColor" />
</symbol><symbol viewBox="0 0 24 24" fill="none" id="icon-add">
<g clip-path="url(#icon-add_clip0_11_2)">
<path d="M19 13H13V19H11V13H5V11H11V5H13V11H19V13Z" fill="currentColor" />
</g>
<defs>

</defs>
</symbol><clipPath id="icon-add_clip0_11_2">
<rect width="24" height="24" fill="white" />
</clipPath><symbol viewBox="0 0 24 24" fill="none" id="icon-close">
<g clip-path="url(#icon-close_clip0_7_63)">
<path d="M19 6.41L17.59 5L12 10.59L6.41 5L5 6.41L10.59 12L5 17.59L6.41 19L12 13.41L17.59 19L19 17.59L13.41 12L19 6.41Z" fill="currentColor" />
</g>
<defs>

</defs>
</symbol><clipPath id="icon-close_clip0_7_63">
<rect width="24" height="24" fill="white" />
</clipPath><symbol viewBox="0 0 24 24" fill="none" id="icon-direction">
<path d="M0 12.0213C0 9.84725 0.543517 7.83304 1.61989 5.98934C2.69627 4.14565 4.15631 2.68561 6 1.60924C7.84369 0.53286 9.84725 0 12.0107 0C13.6306 0 15.1865 0.319716 16.6679 0.94849C18.1492 1.57726 19.4174 2.4405 20.4938 3.50622C21.5702 4.57194 22.4227 5.8508 23.0515 7.34281C23.6803 8.83481 24 10.3801 24 12.0213C24 13.6412 23.6803 15.1972 23.0515 16.6785C22.4227 18.1599 21.5595 19.4387 20.4938 20.5044C19.4281 21.5702 18.1492 22.4227 16.6679 23.0515C15.1865 23.6803 13.6412 24 12.0107 24C10.3801 24 8.8135 23.6803 7.33215 23.0515C5.8508 22.4227 4.57194 21.5595 3.49556 20.4938C2.41918 19.4281 1.57726 18.1492 0.937833 16.6785C0.298401 15.2078 0 13.6519 0 12.0213ZM2.64298 12.0213C2.64298 14.5471 3.5595 16.7425 5.4032 18.6075C7.24689 20.4512 9.44227 21.3677 12.0107 21.3677C13.6945 21.3677 15.2611 20.952 16.6892 20.1101C18.1172 19.2682 19.2682 18.1385 20.1101 16.6998C20.952 15.2611 21.3783 13.7052 21.3783 12.0213C21.3783 10.3375 20.952 8.77087 20.1101 7.33215C19.2682 5.89343 18.1279 4.75311 16.6892 3.91119C15.2504 3.06927 13.6945 2.65364 12.0107 2.65364C10.3268 2.65364 8.76021 3.06927 7.33215 3.91119C5.90409 4.75311 4.75311 5.89343 3.90053 7.33215C3.04796 8.77087 2.64298 10.3375 2.64298 12.0213ZM7.85435 18.2558L11.8508 4.28419C11.8615 4.17762 11.9147 4.12433 12.0107 4.12433C12.1066 4.12433 12.1599 4.17762 12.1705 4.28419L16.1563 18.2558C16.1989 18.373 16.1883 18.4583 16.135 18.5222C16.0817 18.5861 15.9964 18.5861 15.8792 18.5222L12.1812 17.1368C12.0746 17.0941 11.968 17.0941 11.8721 17.1368L8.1421 18.5222C8.03552 18.5861 7.96092 18.5861 7.9183 18.5222C7.87567 18.4583 7.83304 18.3623 7.85435 18.2558Z" fill="currentColor" />
</symbol><symbol viewBox="0 0 24 24" fill="none" id="icon-drag">
<g clip-path="url(#icon-drag_clip0_8_66)">
<path d="M20 9H4V11H20V9ZM4 15H20V13H4V15Z" fill="currentColor" />
</g>
<defs>

</defs>
</symbol><clipPath id="icon-drag_clip0_8_66">
<rect width="24" height="24" fill="white" />
</clipPath><symbol viewBox="0 0 19 24" fill="none" id="icon-humidity">
<path d="M0 14.7162C0 13.6121 0.301097 12.345 0.903293 10.9148C1.50549 9.48458 2.28333 8.092 3.2368 6.76215C5.19394 4.17773 6.90016 2.2206 8.33037 0.903293L9.2713 0C9.58494 0.326189 9.93622 0.627287 10.3126 0.903293C10.827 1.43021 11.6174 2.29587 12.6712 3.52535C13.725 4.75484 14.6409 5.84631 15.3936 6.84997C16.2844 8.11709 17.0497 9.48458 17.6644 10.9273C18.2791 12.3701 18.5928 13.6372 18.5928 14.7287C18.5928 15.9833 18.3544 17.1751 17.8651 18.3168C17.3758 19.4584 16.7235 20.4496 15.8955 21.2776C15.0674 22.1056 14.0763 22.7705 12.9221 23.2598C11.7679 23.7491 10.551 24 9.2713 24C8.01673 24 6.82488 23.7616 5.68322 23.2849C4.54156 22.8082 3.55044 22.1683 2.72242 21.3403C1.89441 20.5248 1.22948 19.5337 0.740198 18.3921C0.250914 17.2504 0 16.0209 0 14.7162ZM2.83534 11.0403C2.83534 12.0815 3.04861 12.9096 3.48772 13.5369C3.92682 14.1516 4.59174 14.4652 5.48249 14.4652C6.38578 14.4652 7.05071 14.1516 7.50235 13.5369C7.94145 12.9221 8.16728 12.0941 8.17982 11.0403C8.16728 9.98641 7.94145 9.15839 7.50235 8.5311C7.06325 7.91636 6.38578 7.60272 5.48249 7.60272C4.59174 7.60272 3.92682 7.91636 3.48772 8.5311C3.04861 9.15839 2.83534 9.98641 2.83534 11.0403ZM4.80502 11.0403C4.80502 10.8521 4.80502 10.7015 4.80502 10.6011C4.80502 10.5008 4.81756 10.3628 4.83011 10.1871C4.84266 10.0115 4.8552 9.8735 4.89284 9.78568C4.93048 9.69786 4.95557 9.58495 5.00575 9.48458C5.05593 9.38421 5.11866 9.29639 5.19394 9.25876C5.28176 9.20857 5.36958 9.18348 5.48249 9.18348C5.65813 9.18348 5.79613 9.23366 5.8965 9.33403C5.99686 9.4344 6.07214 9.59749 6.10978 9.81077C6.14741 10.0366 6.1725 10.2122 6.18505 10.3753C6.1976 10.5384 6.1976 10.7517 6.1976 11.0277C6.1976 11.3163 6.1976 11.5295 6.18505 11.6801C6.1725 11.8306 6.14741 12.0188 6.10978 12.2446C6.07214 12.4579 5.99686 12.621 5.8965 12.7214C5.79613 12.8217 5.65813 12.8719 5.48249 12.8719C5.36958 12.8719 5.28176 12.8468 5.19394 12.7967C5.10612 12.7465 5.04339 12.6712 5.00575 12.5708C4.95557 12.4705 4.91793 12.3576 4.89284 12.2697C4.86775 12.1694 4.84266 12.0314 4.83011 11.8683C4.81756 11.6926 4.80502 11.5546 4.80502 11.4668C4.80502 11.379 4.80502 11.2284 4.80502 11.0403ZM5.54522 20.7632H7.20125L13.4616 7.28908H11.7679L5.54522 20.7632ZM10.9399 17.012C10.9524 18.0659 11.1908 18.8939 11.6299 19.5212C12.069 20.1359 12.7465 20.4496 13.6372 20.4496C14.5405 20.4496 15.2054 20.1359 15.6445 19.5212C16.0836 18.9064 16.2969 18.0659 16.3095 17.012C16.2969 15.9582 16.0836 15.1302 15.6445 14.5154C15.2054 13.9007 14.5405 13.587 13.6372 13.587C12.7465 13.587 12.069 13.9007 11.6299 14.5154C11.1783 15.1302 10.9524 15.9582 10.9399 17.012ZM12.9096 17.012C12.9096 16.7235 12.9096 16.5102 12.9221 16.3596C12.9347 16.2091 12.9597 16.0209 12.9974 15.7951C13.035 15.5693 13.1103 15.4187 13.2107 15.3183C13.311 15.218 13.449 15.1678 13.6247 15.1678C13.7376 15.1678 13.838 15.1929 13.9258 15.2431C14.0136 15.2933 14.0763 15.3685 14.1265 15.4814C14.1767 15.5944 14.2143 15.6947 14.252 15.7825C14.2896 15.8704 14.3021 16.0084 14.3147 16.184L14.3272 16.5855V17.012V17.4511L14.3147 17.8526L14.252 18.2541L14.1265 18.5551L13.9258 18.7935L13.6247 18.8688C13.449 18.8688 13.311 18.8186 13.2107 18.7182C13.1103 18.6179 13.035 18.4548 12.9974 18.2415C12.9597 18.0157 12.9347 17.8275 12.9221 17.6769C12.9096 17.5264 12.9096 17.3006 12.9096 17.012Z" fill="currentColor" />
</symbol><symbol viewBox="0 0 24 24" fill="none" id="icon-remove">
<g clip-path="url(#icon-remove_clip0_9_73)">
<path d="M19 4H15.5L14.5 3H9.5L8.5 4H5V6H19V4ZM6 7V19C6 20.1 6.9 21 8 21H16C17.1 21 18 20.1 18 19V7H6Z" fill="currentColor" />
</g>
<defs>

</defs>
</symbol><clipPath id="icon-remove_clip0_9_73">
<rect width="24" height="24" fill="white" />
</clipPath><symbol viewBox="0 0 24 24" fill="none" id="icon-settings">
<g clip-path="url(#icon-settings_clip0_4_50)">
<path d="M19.14 12.94C19.18 12.64 19.2 12.33 19.2 12C19.2 11.68 19.18 11.36 19.13 11.06L21.16 9.48C21.34 9.34 21.39 9.07 21.28 8.87L19.36 5.55C19.24 5.33 18.99 5.26 18.77 5.33L16.38 6.29C15.88 5.91 15.35 5.59 14.76 5.35L14.4 2.81C14.36 2.57 14.16 2.4 13.92 2.4H10.08C9.84 2.4 9.65 2.57 9.61 2.81L9.25 5.35C8.66 5.59 8.12 5.92 7.63 6.29L5.24 5.33C5.02 5.25 4.77 5.33 4.65 5.55L2.74 8.87C2.62 9.08 2.66 9.34 2.86 9.48L4.89 11.06C4.84 11.36 4.8 11.69 4.8 12C4.8 12.31 4.82 12.64 4.87 12.94L2.84 14.52C2.66 14.66 2.61 14.93 2.72 15.13L4.64 18.45C4.76 18.67 5.01 18.74 5.23 18.67L7.62 17.71C8.12 18.09 8.65 18.41 9.24 18.65L9.6 21.19C9.65 21.43 9.84 21.6 10.08 21.6H13.92C14.16 21.6 14.36 21.43 14.39 21.19L14.75 18.65C15.34 18.41 15.88 18.09 16.37 17.71L18.76 18.67C18.98 18.75 19.23 18.67 19.35 18.45L21.27 15.13C21.39 14.91 21.34 14.66 21.15 14.52L19.14 12.94ZM12 15.6C10.02 15.6 8.4 13.98 8.4 12C8.4 10.02 10.02 8.4 12 8.4C13.98 8.4 15.6 10.02 15.6 12C15.6 13.98 13.98 15.6 12 15.6Z" fill="currentColor" />
</g>
<defs>

</defs>
</symbol><clipPath id="icon-settings_clip0_4_50">
<rect width="24" height="24" fill="none" />
</clipPath></defs></svg>