<svg width="24" height="25" viewBox="0 0 24 25" fill="none" xmlns="http://www.w3.org/2000/svg">
<path d="M0 12.0592C0 10.4287 0.322713 8.88308 0.951153 7.38841C1.57959 5.89374 2.44582 4.61988 3.51586 3.54983C4.58591 2.47979 5.87676 1.61356 7.37143 0.968136C8.86609 0.322712 10.4287 0 12.0423 0H13.9785C14.2503 0.0679394 14.3692 0.237788 14.3692 0.475575L14.4541 1.97024C14.5221 4.12732 15.2864 5.96168 16.781 7.47334C18.2757 8.98499 20.0761 9.80026 22.1992 9.88519L23.592 10.0041C23.8637 10.0041 23.9996 10.14 23.9996 10.3947V12.0592C24.0166 14.2333 23.4901 16.2545 22.42 18.1059C21.35 19.9572 19.9063 21.4179 18.0549 22.5049C16.2205 23.575 14.1993 24.1185 12.0253 24.1185C10.3777 24.1185 8.79816 23.7958 7.30349 23.1673C5.80882 22.5389 4.53496 21.6727 3.46491 20.6026C2.39486 19.5326 1.54562 18.2417 0.917182 16.7641C0.322712 15.2694 0 13.7068 0 12.0592ZM3.10823 12.0592C3.10823 13.3501 3.363 14.573 3.87255 15.728C4.38209 16.866 5.06149 17.8341 5.89375 18.6154C6.726 19.3967 7.67715 20.0082 8.76418 20.4498C9.83423 20.9084 10.9382 21.1292 12.0592 21.1292C13.0444 21.1292 14.0465 20.9423 15.0486 20.5517C16.0507 20.161 16.9849 19.6175 17.8511 18.9211C18.7173 18.2247 19.4477 17.3415 20.0761 16.2545C20.7045 15.1675 21.0952 13.9955 21.282 12.7047C18.5135 12.1272 16.2885 10.9382 14.624 9.13785C12.9594 7.33746 11.9913 5.23134 11.7365 2.78552C10.106 2.88743 8.64529 3.37999 7.30349 4.28018C5.97867 5.18038 4.94259 6.31837 4.21224 7.71112C3.4819 9.10388 3.10823 10.5476 3.10823 12.0592Z" fill="black"/>
</svg>
