<svg width="24" height="19" viewBox="0 0 24 19" fill="none" xmlns="http://www.w3.org/2000/svg">
<path d="M0 14.2768C0 15.0804 0.196429 15.8214 0.589286 16.5C0.982143 17.1786 1.51786 17.7143 2.19643 18.1071C2.875 18.5 3.60714 18.6964 4.40179 18.6964H14.0714C14.8661 18.6964 15.6071 18.5 16.2857 18.1071C16.9643 17.7143 17.5089 17.1786 17.9018 16.5C18.2946 15.8214 18.5 15.0804 18.5 14.2768C18.5 13.6875 18.375 13.0893 18.125 12.4911C18.8036 11.6696 19.1429 10.6786 19.1429 9.54464C19.1429 8.91071 19.0179 8.30357 18.7768 7.72321C18.5357 7.14286 18.1964 6.65179 17.7768 6.23214C17.3571 5.8125 16.8661 5.47321 16.2857 5.23214C15.7054 4.98214 15.0982 4.86607 14.4643 4.86607C13.1429 4.86607 11.9911 5.38393 11 6.41964C10.3125 6.02679 9.50893 5.83036 8.58929 5.83036C7.33036 5.83036 6.22321 6.22321 5.25893 7C4.29464 7.77679 3.66964 8.77679 3.40179 9.99107C2.40179 10.2232 1.58929 10.7321 0.955357 11.5357C0.321429 12.3393 0 13.25 0 14.2768ZM1.52679 14.2768C1.52679 13.5268 1.77679 12.8839 2.27679 12.3393C2.77679 11.7946 3.40179 11.4821 4.15179 11.3929L4.59821 11.3661C4.70536 11.3661 4.76786 11.3125 4.76786 11.2054L4.83036 10.7232C4.95536 9.75893 5.375 8.94643 6.08929 8.30357C6.80357 7.65179 7.64286 7.33036 8.59821 7.33036C9.58036 7.33036 10.4375 7.66071 11.1607 8.3125C11.8929 8.96429 12.2946 9.76786 12.3839 10.7321L12.4464 11.25C12.4643 11.3482 12.5268 11.4018 12.6339 11.4018H14.0714C14.8571 11.4018 15.5357 11.6875 16.1071 12.2589C16.6786 12.8304 16.9643 13.5 16.9643 14.2857C16.9643 15.0982 16.6786 15.7857 16.1161 16.3571C15.5536 16.9286 14.8661 17.2143 14.0804 17.2143H4.40179C3.61607 17.2143 2.94643 16.9286 2.375 16.3482C1.8125 15.7679 1.52679 15.0804 1.52679 14.2768ZM7.50893 3.32143C7.50893 3.53571 7.58036 3.72321 7.72321 3.88393L8.3125 4.45536C8.53571 4.625 8.72321 4.69643 8.88393 4.67857C9.07143 4.67857 9.23214 4.59821 9.375 4.44643C9.51786 4.29464 9.58929 4.10714 9.58929 3.89286C9.58929 3.67857 9.50893 3.5 9.35714 3.36607L8.83036 2.77679C8.66964 2.63393 8.49107 2.5625 8.28571 2.5625C8.07143 2.5625 7.88393 2.63393 7.73214 2.78571C7.58036 2.92857 7.50893 3.10714 7.50893 3.32143ZM12.2768 7.27679C12.8929 6.67857 13.625 6.38393 14.4643 6.38393C15.3482 6.38393 16.0982 6.6875 16.7143 7.30357C17.3304 7.91964 17.6429 8.66071 17.6429 9.54464C17.6429 10.0982 17.4911 10.6518 17.1875 11.1875C16.3214 10.3304 15.2857 9.90179 14.0714 9.90179H13.7857C13.5625 8.92857 13.0625 8.05357 12.2768 7.27679ZM13.7321 2.5625C13.7321 2.79464 13.8036 2.97321 13.9375 3.11607C14.0714 3.25893 14.25 3.32143 14.4643 3.32143C14.6964 3.32143 14.875 3.25 15.0179 3.11607C15.1607 2.97321 15.2232 2.79464 15.2232 2.5625V0.732143C15.2232 0.517857 15.1518 0.348214 15.0089 0.205357C14.8661 0.0625 14.6875 0 14.4643 0C14.25 0 14.0804 0.0714285 13.9375 0.205357C13.7946 0.339286 13.7321 0.517857 13.7321 0.732143V2.5625ZM18.6607 4.60714C18.6607 4.83929 18.7232 5.01786 18.8571 5.16071C19.0446 5.30357 19.2321 5.375 19.4107 5.375C19.5714 5.375 19.75 5.30357 19.9375 5.16071L21.2143 3.88393C21.3571 3.72321 21.4286 3.53571 21.4286 3.3125C21.4286 3.09821 21.3571 2.91964 21.2143 2.77679C21.0714 2.63393 20.8929 2.5625 20.6875 2.5625C20.4732 2.5625 20.3036 2.63393 20.1696 2.77679L18.8571 4.05357C18.7232 4.22321 18.6607 4.40179 18.6607 4.60714ZM19.3661 15.1786C19.3661 15.3929 19.4375 15.5804 19.5893 15.7411L20.1696 16.3036C20.3036 16.4464 20.4732 16.5179 20.6875 16.5179C20.9018 16.5179 21.0804 16.4464 21.2232 16.2946C21.3661 16.1429 21.4375 15.9643 21.4375 15.7411C21.4375 15.5446 21.3661 15.3661 21.2232 15.2232L20.6429 14.6429C20.5 14.5 20.3304 14.4286 20.1339 14.4286C19.9196 14.4286 19.7411 14.5 19.5982 14.6429C19.4464 14.7857 19.3661 14.9643 19.3661 15.1786ZM20.6786 9.54464C20.6786 9.75 20.7589 9.91964 20.9107 10.0625C21.0536 10.2054 21.2411 10.2768 21.4554 10.2768H23.2768C23.4821 10.2768 23.6518 10.2054 23.7946 10.0714C23.9375 9.9375 24 9.75893 24 9.54464C24 9.33036 23.9286 9.15179 23.7946 9.00893C23.6607 8.86607 23.4821 8.78571 23.2768 8.78571H21.4554C21.2411 8.78571 21.0625 8.85714 20.9107 9.00893C20.75 9.16071 20.6786 9.33929 20.6786 9.54464Z" fill="currentColor"/>
</svg>
