<svg width="24" height="19" viewBox="0 0 24 19" fill="none" xmlns="http://www.w3.org/2000/svg">
<path d="M0 12.7455C0 11.4643 0.386562 10.3378 1.17073 9.34376C1.9549 8.34975 2.95996 7.7202 4.19696 7.44409C4.45099 6.30649 4.97009 5.31247 5.74321 4.46203C6.51634 3.6116 7.45513 3.00414 8.53751 2.63967C9.22227 2.40773 9.92913 2.28624 10.6691 2.28624C11.5637 2.28624 12.4363 2.46295 13.2646 2.81638C13.5739 2.29728 13.9383 1.84445 14.358 1.46894C14.7777 1.09342 15.2085 0.795214 15.6503 0.59641C16.092 0.397607 16.5338 0.242982 16.9535 0.14358C17.3732 0.0441781 17.7929 0 18.1905 0C18.6102 0 19.063 0.055223 19.549 0.176714L20.4547 0.45283C20.6093 0.519098 20.6535 0.59641 20.6093 0.695812L20.4547 1.35849C20.3774 1.70087 20.3442 2.02117 20.3442 2.30833C20.3442 2.65071 20.3994 3.00414 20.5099 3.35757C20.6203 3.711 20.775 4.05338 20.9959 4.39577C21.2057 4.73815 21.5039 5.03635 21.8794 5.31247C22.2549 5.58859 22.6746 5.79843 23.1496 5.94201L23.8343 6.185C23.9448 6.21813 24 6.27335 24 6.36171C24 6.3838 23.989 6.40589 23.9779 6.43902L23.7791 7.17901C23.4809 8.37184 22.9176 9.31063 22.1224 10.0175C22.5642 10.7906 22.8072 11.619 22.8403 12.4915C22.8514 12.5467 22.8514 12.624 22.8514 12.7455C22.8514 13.7285 22.6084 14.6452 22.1114 15.4846C21.6254 16.324 20.9517 16.9867 20.1233 17.4726C19.2839 17.9586 18.3672 18.2126 17.3843 18.2126H5.44501C4.46203 18.2126 3.54533 17.9696 2.70594 17.4726C1.86654 16.9756 1.21491 16.3129 0.728946 15.4846C0.242982 14.6562 0 13.7395 0 12.7455ZM1.88863 12.7455C1.88863 13.7285 2.24206 14.5789 2.94892 15.2968C3.65578 16.0147 4.48412 16.3792 5.44501 16.3792H17.3843C18.3672 16.3792 19.2066 16.0258 19.9024 15.3079C20.5983 14.59 20.9517 13.7395 20.9517 12.7455C20.9517 11.7736 20.5983 10.9452 19.8914 10.2494C19.1845 9.55361 18.3451 9.20018 17.3732 9.20018H15.4073L15.2968 8.37184C15.1864 7.25633 14.7225 6.29544 13.9052 5.51127C13.0879 4.72711 12.116 4.28532 11.0005 4.18592C10.9673 4.18592 10.9121 4.18592 10.8348 4.17487C10.7575 4.16383 10.7133 4.16383 10.6691 4.16383C10.1058 4.16383 9.54257 4.27427 8.96825 4.48412V4.46203C8.16199 4.77128 7.47722 5.27934 6.93603 5.97515C6.3838 6.67096 6.05246 7.46617 5.94202 8.37184L5.8647 9.16705L5.11367 9.20018C4.18592 9.31063 3.41279 9.69719 2.79429 10.3709C2.17579 11.0446 1.88863 11.8288 1.88863 12.7455ZM14.8661 3.78831C16.0368 4.79337 16.7658 5.9641 17.0419 7.30051H17.3953C18.7648 7.30051 19.9356 7.73125 20.8965 8.60377C21.2609 8.26139 21.537 7.86378 21.7358 7.422C20.7308 6.94708 19.9356 6.21813 19.3502 5.2462C18.7759 4.27427 18.4777 3.24712 18.4777 2.17579V1.91072C18.4225 1.89968 18.3341 1.89968 18.2126 1.89968C17.572 1.88863 16.9425 2.04326 16.335 2.38564C15.7276 2.71698 15.2306 3.18086 14.8661 3.78831Z" fill="currentColor"/>
</svg>
