<svg width="24" height="17" viewBox="0 0 24 17" fill="none" xmlns="http://www.w3.org/2000/svg">
<path d="M0 10.9605C0 9.63234 0.415784 8.45428 1.24735 7.41482C2.07892 6.37536 3.12993 5.70549 4.41193 5.41675C4.76997 3.83446 5.58999 2.54091 6.84889 1.52454C8.1078 0.508181 9.56304 0 11.1915 0C12.7854 0 14.206 0.496632 15.4533 1.47834C16.7007 2.46006 17.5091 3.73051 17.8787 5.27815H18.2599C19.2993 5.27815 20.2579 5.53224 21.1357 6.02887C22.0135 6.52551 22.718 7.21848 23.2262 8.09625C23.7344 8.97401 24 9.92108 24 10.9605C24 11.9769 23.7575 12.924 23.2724 13.7902C22.7873 14.6564 22.1174 15.3494 21.2743 15.8691C20.4312 16.3888 19.4957 16.666 18.4909 16.7007H5.54379C3.99615 16.6314 2.69105 16.0424 1.61694 14.9336C0.54283 13.8364 0 12.5082 0 10.9605ZM1.97498 10.9605C1.97498 11.9654 2.32146 12.8316 3.01444 13.5707C3.70741 14.3099 4.55053 14.7026 5.54379 14.7603H18.4678C19.461 14.7142 20.3041 14.3099 20.9971 13.5707C21.7016 12.8316 22.0481 11.9538 22.0481 10.9605C22.0481 9.94418 21.667 9.07796 20.9163 8.33879C20.1655 7.59962 19.2762 7.23003 18.2368 7.23003H16.3888C16.2618 7.23003 16.1925 7.16073 16.1925 7.02214L16.1116 6.36381C15.9846 5.11646 15.4418 4.06545 14.4947 3.22233C13.5476 2.37921 12.4504 1.95188 11.1915 1.95188C9.93263 1.95188 8.82387 2.37921 7.8999 3.22233C6.96439 4.06545 6.43311 5.11646 6.31761 6.36381L6.22522 7.02214C6.22522 7.16073 6.14437 7.23003 5.99423 7.23003H5.3821C4.41193 7.34553 3.60346 7.76131 2.95669 8.46583C2.30991 9.17036 1.97498 10.0019 1.97498 10.9605Z" fill="currentColor"/>
</svg>
