<svg width="24" height="16" viewBox="0 0 24 16" fill="none" xmlns="http://www.w3.org/2000/svg">
<path d="M0 11.1303C0 10.0605 0.334984 9.09875 1.00495 8.2667C1.67492 7.43464 2.52859 6.89434 3.57677 6.65661C3.85772 5.39232 4.49527 4.34414 5.50022 3.5445C6.50518 2.73405 7.66141 2.33423 8.97974 2.33423C10.2548 2.33423 11.4003 2.72325 12.3944 3.51208C13.3994 4.30092 14.0477 5.30587 14.3395 6.53775H14.6312C15.9063 6.53775 16.9869 6.98079 17.8838 7.87768C18.7807 8.77458 19.2346 9.85517 19.2346 11.1195C19.2346 12.3946 18.7807 13.4752 17.8838 14.3721C16.9869 15.2689 15.9063 15.7228 14.6312 15.7228H4.61414C3.98739 15.7228 3.39307 15.6039 2.83116 15.3554C2.26925 15.1069 1.76137 14.8043 1.35074 14.3937C0.940117 13.983 0.615939 13.486 0.367402 12.9241C0.118865 12.3621 0 11.7462 0 11.1303ZM1.56686 11.1303C1.56686 11.9515 1.86943 12.6647 2.45295 13.2482C3.03647 13.8318 3.76047 14.1343 4.60333 14.1343H14.6312C15.4633 14.1343 16.1873 13.8426 16.7816 13.2482C17.376 12.6539 17.6785 11.9515 17.6785 11.1303C17.6785 10.309 17.3868 9.59583 16.7816 9.01231C16.1873 8.42879 15.4741 8.12622 14.6312 8.12622H13.1292C13.0212 8.12622 12.9671 8.07219 12.9671 7.96413L12.8915 7.43464C12.7834 6.41888 12.3512 5.56521 11.6056 4.89524C10.86 4.22527 9.97389 3.89029 8.95813 3.89029C7.94237 3.89029 7.05628 4.22527 6.29986 4.90605C5.54345 5.57602 5.12202 6.42969 5.02476 7.43464L4.94912 7.88849C4.94912 7.99655 4.89509 8.05058 4.77623 8.05058L4.28996 8.12622C3.51193 8.19105 2.86358 8.51523 2.33408 9.08795C1.83701 9.66066 1.56686 10.3414 1.56686 11.1303ZM11.1301 1.70749C11.0221 1.80474 11.0437 1.88038 11.2058 1.93441C11.6704 2.13973 12.0594 2.33423 12.3728 2.52874C12.4917 2.56116 12.5781 2.55035 12.6105 2.49632C13.2697 1.88038 14.0261 1.56701 14.9014 1.56701C15.7767 1.56701 16.5223 1.85877 17.1706 2.44229C17.8082 3.02581 18.1648 3.74981 18.2404 4.60348L18.3377 5.29506H19.8721C20.5745 5.29506 21.1796 5.5436 21.6875 6.05148C22.1954 6.55936 22.4439 7.15368 22.4439 7.84526C22.4439 8.49362 22.217 9.05553 21.774 9.5418C21.3309 10.0281 20.7798 10.2982 20.1207 10.3739C20.0126 10.3739 19.9586 10.4279 19.9586 10.5468V11.7678C19.9586 11.8867 20.0126 11.9407 20.1207 11.9407C21.2121 11.8759 22.1306 11.4436 22.8762 10.6548C23.6218 9.86598 24 8.92586 24 7.84526C24 6.69983 23.6002 5.7273 22.7897 4.92766C21.9793 4.11721 21.0068 3.71739 19.8721 3.71739H19.71C19.4291 2.6368 18.8348 1.75071 17.9271 1.04833C17.0302 0.345941 16.0144 0.000150091 14.9014 0.000150091C13.3886 -0.0106559 12.1243 0.562059 11.1301 1.70749Z" fill="currentColor"/>
</svg>
