<svg width="24" height="24" viewBox="0 0 24 24" fill="none" xmlns="http://www.w3.org/2000/svg">
<path d="M0 10.9638C0 9.63241 0.416787 8.45152 1.25036 7.40955C2.08394 6.36758 3.13748 5.70767 4.411 5.40666C4.7699 3.83213 5.5919 2.53546 6.85383 1.51664C8.11577 0.497829 9.56295 0 11.1954 0C12.7931 0 14.2055 0.497829 15.4559 1.48191C16.7062 2.46599 17.5166 3.73951 17.8871 5.29088H18.2576C19.288 5.29088 20.2489 5.54559 21.1288 6.04341C22.0087 6.54124 22.7149 7.23589 23.2243 8.1042C23.7337 8.9725 24 9.93343 24 10.9638C24 11.9826 23.7569 12.9204 23.2706 13.7887C22.7844 14.657 22.1129 15.3517 21.2677 15.8726C20.4226 16.3936 19.4964 16.6715 18.4891 16.6946C18.3386 16.6946 18.2576 16.6252 18.2576 16.4978V14.958C18.2576 14.8191 18.3386 14.7496 18.4891 14.7496C19.4732 14.7033 20.3184 14.3097 21.013 13.5687C21.7077 12.8278 22.055 11.9595 22.055 10.9522C22.055 9.945 21.6729 9.0767 20.9204 8.33574C20.1679 7.59479 19.2764 7.22431 18.246 7.22431H16.3821C16.2431 7.22431 16.1737 7.15485 16.1737 7.0275L16.081 6.35601C15.9537 5.10564 15.4095 4.0521 14.4718 3.21852C13.5224 2.37337 12.4342 1.95658 11.1722 1.95658C9.91027 1.95658 8.79884 2.37337 7.87265 3.21852C6.93488 4.06368 6.41389 5.10564 6.29812 6.35601L6.21708 6.96961C6.21708 7.10854 6.13603 7.18958 5.98553 7.18958L5.37192 7.22431C4.411 7.34009 3.60058 7.75687 2.94067 8.4631C2.28075 9.16932 1.95658 10.0029 1.95658 10.9638C1.95658 11.9711 2.30391 12.8394 2.99855 13.5803C3.6932 14.3213 4.53835 14.7149 5.52243 14.7612C5.64978 14.7612 5.71925 14.8307 5.71925 14.9696V16.5094C5.71925 16.6368 5.64978 16.7062 5.52243 16.7062C3.97106 16.6368 2.66281 16.0463 1.58611 14.9349C0.509407 13.8234 0 12.5036 0 10.9638ZM6.19392 18.7091C6.19392 18.6628 6.2055 18.5818 6.24023 18.4776L8.12735 11.7974C8.19682 11.5774 8.32417 11.4038 8.49783 11.288C8.67149 11.1722 8.85673 11.1143 9.03039 11.1143C9.11143 11.1143 9.20405 11.1259 9.30825 11.1491C9.58611 11.1954 9.7945 11.3459 9.93343 11.5774C10.0724 11.809 10.1071 12.0637 10.026 12.3531L8.13893 18.987C8 19.4848 7.67583 19.7279 7.18958 19.7279C7.14327 19.7279 7.10854 19.7163 7.06223 19.7048C6.99276 19.6816 6.95803 19.67 6.94645 19.67C6.69175 19.6006 6.50651 19.4732 6.37916 19.288C6.25181 19.0912 6.19392 18.9059 6.19392 18.7091ZM9.22721 21.9624L12.0521 11.809C12.0984 11.589 12.2142 11.4153 12.3994 11.2996C12.5847 11.1838 12.7699 11.1259 12.9667 11.1259C13.0709 11.1259 13.1751 11.1375 13.2793 11.1606C13.534 11.2301 13.7192 11.3806 13.8466 11.6122C13.974 11.8437 13.9971 12.0868 13.9276 12.3531L11.1143 22.5181C11.068 22.7149 10.9638 22.877 10.7786 23.0159C10.5933 23.1548 10.4081 23.2243 10.1881 23.2243C10.0839 23.2243 9.97974 23.2012 9.8987 23.1664C9.66715 23.1085 9.47033 22.958 9.29667 22.7149C9.16932 22.5065 9.14616 22.2634 9.22721 21.9624ZM14.0087 18.7323C14.0087 18.686 14.0203 18.6049 14.055 18.466L15.9421 11.7858C16.0116 11.5658 16.1273 11.3922 16.2894 11.2764C16.4631 11.1606 16.6368 11.1027 16.822 11.1027C16.9146 11.1027 17.0188 11.1143 17.123 11.1375C17.3661 11.2069 17.5398 11.3227 17.6556 11.4964C17.7713 11.67 17.8292 11.8553 17.8292 12.0405C17.8292 12.0753 17.8177 12.1331 17.8061 12.2026C17.7945 12.2721 17.7829 12.3184 17.7829 12.3415L15.8958 18.9754C15.8495 19.1954 15.7453 19.3806 15.5716 19.508C15.398 19.6353 15.2012 19.7048 14.9812 19.7048L14.7033 19.6469C14.4718 19.5774 14.2981 19.4616 14.1708 19.2764C14.0666 19.1027 14.0087 18.9175 14.0087 18.7323Z" fill="currentColor"/>
</svg>
