<svg width="24" height="24" viewBox="0 0 24 24" fill="none" xmlns="http://www.w3.org/2000/svg">
<path d="M0 14.2595C0 15.4425 0.409192 16.4655 1.23647 17.3195C2.06375 18.1735 3.06894 18.6271 4.26983 18.6805C4.36768 18.6805 4.42105 18.6271 4.42105 18.5293V17.3373C4.42105 17.2394 4.36768 17.1861 4.26983 17.1861C3.50482 17.1505 2.85545 16.8391 2.32172 16.2698C1.78799 15.7005 1.52113 15.0245 1.52113 14.2595C1.52113 13.53 1.7702 12.8895 2.27724 12.338C2.78428 11.7865 3.40697 11.4752 4.14529 11.3862L4.61675 11.3417C4.73239 11.3417 4.79466 11.2884 4.79466 11.1905L4.85693 10.7102C4.95478 9.74944 5.35508 8.93996 6.07561 8.29059C6.79615 7.64122 7.64122 7.31208 8.61082 7.31208C9.58043 7.31208 10.4255 7.64122 11.1549 8.29059C11.8844 8.93996 12.2936 9.74944 12.4003 10.7102L12.4626 11.2172C12.4626 11.3239 12.5159 11.3862 12.6138 11.3862H14.0549C14.8466 11.3862 15.5226 11.6709 16.1008 12.2402C16.679 12.8095 16.9637 13.4766 16.9637 14.2595C16.9637 15.0334 16.6968 15.7005 16.1631 16.2698C15.6294 16.8391 14.98 17.1416 14.2239 17.1861C14.1171 17.1861 14.0549 17.2394 14.0549 17.3373V18.5293C14.0549 18.6271 14.1082 18.6805 14.2239 18.6805C15.407 18.6449 16.4122 18.1913 17.2394 17.3373C18.0667 16.4744 18.4759 15.4514 18.4759 14.2683C18.4759 13.6279 18.3514 13.0319 18.1023 12.4804C18.7961 11.6175 19.1431 10.639 19.1431 9.53595C19.1431 8.69088 18.9296 7.90808 18.5115 7.18755C18.0934 6.46701 17.5241 5.8977 16.8036 5.47961C16.083 5.06153 15.3091 4.85693 14.4729 4.85693C13.0852 4.85693 11.9377 5.37287 11.0215 6.40474C10.2921 6.01334 9.49147 5.81764 8.61082 5.81764C7.35656 5.81764 6.23573 6.20904 5.26612 6.99185C4.29652 7.77465 3.67383 8.77094 3.39807 9.98073C2.41067 10.212 1.60119 10.7279 0.960712 11.5285C0.320237 12.3291 0 13.2365 0 14.2595ZM4.80356 20.3617C4.80356 20.513 4.84804 20.6553 4.94589 20.7976C5.04374 20.94 5.18606 21.0378 5.38176 21.0912C5.47961 21.109 5.55967 21.1268 5.62194 21.1268C5.96887 21.1268 6.20015 20.94 6.30689 20.5574L7.71238 15.3269C7.77465 15.1134 7.74796 14.9177 7.64122 14.7309C7.53447 14.5441 7.37435 14.4374 7.16975 14.3929C6.97405 14.3306 6.78725 14.3484 6.60934 14.4552C6.43143 14.553 6.30689 14.7042 6.24463 14.9088L4.83914 20.166C4.82135 20.2817 4.80356 20.344 4.80356 20.3617ZM7.12528 23.1016C7.12528 23.2706 7.16976 23.4218 7.25871 23.5641C7.34766 23.7064 7.49889 23.7954 7.72127 23.831C7.81912 23.8488 7.89918 23.8666 7.95256 23.8666C8.09488 23.8666 8.22832 23.8132 8.35285 23.7153C8.47739 23.6086 8.55745 23.4663 8.59303 23.2884L10.7279 15.3447C10.7813 15.1401 10.7635 14.9444 10.6657 14.7754C10.5678 14.6064 10.4166 14.4818 10.2209 14.4196C10.0163 14.3573 9.82061 14.3751 9.6427 14.4818C9.46479 14.5797 9.34025 14.7309 9.28688 14.9355L7.15196 22.8792C7.13417 23.0126 7.12528 23.0927 7.12528 23.1016ZM7.49889 3.32691C7.49889 3.5404 7.57005 3.71831 7.72127 3.86953L8.29948 4.45663C8.4685 4.59007 8.6553 4.65234 8.851 4.65234C9.03781 4.65234 9.21572 4.58117 9.36694 4.44774C9.51816 4.30541 9.59822 4.1364 9.59822 3.92291C9.59822 3.70941 9.52706 3.51371 9.38473 3.3536L8.81542 2.77539C8.6553 2.62417 8.47739 2.553 8.28169 2.553C8.0682 2.553 7.88139 2.63306 7.73017 2.78428C7.57895 2.93551 7.49889 3.12231 7.49889 3.32691ZM10.8169 20.3795C10.8169 20.5219 10.8614 20.6642 10.9503 20.7976C11.0393 20.9311 11.1816 21.0289 11.3595 21.0823C11.4574 21.1001 11.5374 21.1179 11.5819 21.1179C11.7331 21.1179 11.8844 21.0734 12.0178 20.9844C12.1512 20.8955 12.2402 20.7531 12.2847 20.5486L13.6901 15.318C13.7435 15.1134 13.7257 14.9177 13.6279 14.7487C13.53 14.5708 13.3788 14.4552 13.1831 14.3929C12.9696 14.3306 12.7828 14.3484 12.6049 14.4552C12.427 14.553 12.3113 14.7042 12.258 14.9088L10.8525 20.166C10.8347 20.2995 10.8169 20.3706 10.8169 20.3795ZM12.2669 7.26761C12.8984 6.67161 13.6279 6.37806 14.4729 6.37806C15.3447 6.37806 16.0919 6.6894 16.6968 7.30319C17.3106 7.91698 17.613 8.6642 17.613 9.54485C17.613 10.0964 17.4618 10.6479 17.1505 11.1905C16.2876 10.3277 15.2557 9.90067 14.046 9.90067H13.7524C13.5122 8.851 13.0141 7.97924 12.2669 7.26761ZM13.7079 2.59748C13.7079 2.80208 13.7791 2.97998 13.9303 3.12231C14.0815 3.26464 14.2595 3.3358 14.4729 3.3358C14.6775 3.3358 14.8554 3.26464 14.9978 3.13121C15.1401 2.98888 15.2113 2.81987 15.2113 2.60637V0.773907C15.2113 0.542624 15.1401 0.355819 15.0067 0.213491C14.8643 0.0711638 14.6953 0 14.4818 0C14.2595 0 14.0726 0.0711638 13.9303 0.222387C13.788 0.37361 13.7168 0.55152 13.7168 0.773907V2.59748H13.7079ZM18.6271 4.62565C18.6271 4.83914 18.7072 5.01705 18.8673 5.15048C18.9918 5.29281 19.152 5.36397 19.3566 5.38176C19.5612 5.39956 19.748 5.3195 19.9081 5.15048L21.189 3.87843C21.3491 3.72721 21.4203 3.5404 21.4203 3.31801C21.4203 3.10452 21.3491 2.91772 21.1979 2.77539C21.0467 2.63306 20.8688 2.5619 20.6553 2.5619C20.4685 2.5619 20.2995 2.63306 20.1394 2.78428L18.8673 4.06523C18.7072 4.21646 18.6271 4.40326 18.6271 4.62565ZM19.3477 15.1668C19.3477 15.3803 19.4188 15.5671 19.5612 15.7272L20.1394 16.2876C20.2995 16.4122 20.4774 16.4744 20.6731 16.4744L20.6909 16.4922C20.8955 16.4922 21.0645 16.4211 21.2068 16.2787C21.3491 16.1364 21.4203 15.9496 21.4203 15.7361C21.4203 15.5226 21.3403 15.3536 21.189 15.2202L20.6375 14.6331C20.4774 14.4907 20.2906 14.4196 20.086 14.4196C19.8814 14.4196 19.7035 14.4907 19.5612 14.642C19.4188 14.7932 19.3477 14.9533 19.3477 15.1668ZM20.6464 9.53595C20.6464 9.74944 20.7265 9.91846 20.8777 10.0608C21.0378 10.2209 21.2157 10.2921 21.4292 10.2921H23.235C23.4485 10.2921 23.6264 10.2209 23.7776 10.0697C23.9288 9.91846 24 9.74055 24 9.53595C24 9.32246 23.9288 9.14455 23.7776 8.99333C23.6264 8.84211 23.4485 8.76205 23.235 8.76205H21.4292C21.2157 8.76205 21.0378 8.84211 20.8777 8.99333C20.7176 9.14455 20.6464 9.32246 20.6464 9.53595Z" fill="currentColor"/>
</svg>
