<svg width="24" height="25" viewBox="0 0 24 25" fill="none" xmlns="http://www.w3.org/2000/svg">
<path d="M0 12.7298C0 14.1893 0.515775 15.4513 1.53635 16.5048C2.55693 17.5583 3.80796 18.118 5.26749 18.1838C5.39918 18.1838 5.46502 18.118 5.46502 17.9973V16.5267C5.46502 16.406 5.39918 16.3402 5.26749 16.3402C4.32373 16.2853 3.52263 15.9122 2.8642 15.2099C2.20576 14.5075 1.87654 13.6845 1.87654 12.7298C1.87654 11.8189 2.18381 11.0288 2.80933 10.3484C3.43484 9.66804 4.20302 9.28395 5.11385 9.17421L5.69547 9.13031C5.83813 9.13031 5.91495 9.06447 5.91495 8.94376L5.99177 8.35117C6.11248 7.16598 6.61728 6.16735 7.50617 5.36625C8.39506 4.56516 9.44856 4.15912 10.6447 4.15912C11.8409 4.15912 12.8834 4.56516 13.7833 5.36625C14.6831 6.16735 15.1879 7.16598 15.3196 8.35117L15.4074 8.97668C15.4074 9.10837 15.4733 9.17421 15.594 9.17421H17.3717C18.3484 9.17421 19.2044 9.52538 19.9177 10.2277C20.631 10.93 20.9931 11.7641 20.9931 12.7298C20.9931 13.6845 20.6639 14.5075 20.0055 15.2099C19.347 15.9122 18.546 16.2853 17.6022 16.3402C17.4486 16.3402 17.3717 16.406 17.3717 16.5267V17.9973C17.3717 18.118 17.4486 18.1838 17.6022 18.1838C19.0617 18.1399 20.3018 17.5802 21.3114 16.5267C22.332 15.4623 22.8368 14.2003 22.8368 12.7407C22.8368 11.775 22.5844 10.8752 22.0905 10.0412C22.9794 9.24005 23.5501 8.28532 23.8244 7.16598L23.9781 6.37586C23.989 6.36488 24 6.34293 24 6.29904C24 6.22222 23.9451 6.15638 23.8244 6.12346L23.2099 5.92593C22.5844 5.75034 22.0466 5.44307 21.6077 5.01509C21.1577 4.58711 20.8395 4.13717 20.6529 3.66529C20.4664 3.19342 20.3676 2.72154 20.3676 2.26063C20.3457 2.0192 20.3786 1.71193 20.4554 1.36077L20.6091 0.691358C20.6529 0.581618 20.6091 0.493827 20.4554 0.427983L19.5885 0.164609C19.0946 0.0548693 18.6337 0 18.1948 0C17.7778 0 17.3608 0.0438953 16.9438 0.142661C16.5158 0.241426 16.0768 0.384088 15.6269 0.592593C15.177 0.790123 14.738 1.08642 14.31 1.47051C13.882 1.85459 13.5199 2.29355 13.2126 2.80933C12.3128 2.48011 11.4568 2.3155 10.6557 2.3155C9.10837 2.3155 7.72565 2.79835 6.52949 3.76406C5.33333 4.72977 4.55418 5.95885 4.21399 7.46228C2.99588 7.7476 1.99726 8.37311 1.20713 9.36077C0.395062 10.3374 0 11.4678 0 12.7298ZM6.10151 20.2359C6.10151 20.4225 6.15638 20.5981 6.27709 20.7737C6.3978 20.9492 6.57339 21.07 6.81481 21.1358C7.06721 21.2126 7.30864 21.1907 7.51715 21.0919C7.73663 20.9822 7.87929 20.7846 7.9561 20.4774L9.52538 14.0357C9.59122 13.7613 9.5583 13.5089 9.43759 13.3004C9.3059 13.0809 9.11934 12.9492 8.86694 12.8944C8.62551 12.8176 8.39506 12.8395 8.17558 12.9712C7.9561 13.0919 7.80247 13.2785 7.72565 13.5309L6.1454 20.0055C6.1454 20.0165 6.13443 20.0494 6.12346 20.1043C6.11248 20.1591 6.10151 20.203 6.10151 20.2359ZM8.96571 23.6049C8.96571 23.7805 9.02058 23.9451 9.13031 24.1097C9.24005 24.2743 9.40466 24.3841 9.62414 24.4499C9.74486 24.4829 9.83265 24.4938 9.88752 24.4938C10.3704 24.4938 10.6667 24.2743 10.7874 23.8464L13.2565 14.0466C13.3224 13.7833 13.3004 13.5418 13.1797 13.3333C13.059 13.1248 12.8724 12.9822 12.631 12.9053C12.3786 12.8285 12.1372 12.8505 11.9067 12.9822C11.6763 13.1139 11.5336 13.2894 11.4787 13.5309L8.99863 23.3196C8.99863 23.3306 8.99863 23.3745 8.98765 23.4513C8.96571 23.5171 8.96571 23.572 8.96571 23.6049ZM13.5309 20.3237C13.5309 20.7188 13.7613 20.9822 14.2222 21.1358C14.3759 21.1797 14.4856 21.2016 14.5514 21.2016C14.6722 21.2016 14.8038 21.1797 14.9355 21.1248C15.166 21.037 15.3086 20.8176 15.3635 20.4883L16.9328 14.0466C16.9986 13.7833 16.9767 13.5528 16.845 13.3333C16.7243 13.1248 16.5377 12.9822 16.2853 12.9053C16.0329 12.8285 15.7915 12.8505 15.561 12.9822C15.3306 13.1029 15.1989 13.2894 15.144 13.5418L13.5748 20.0165C13.5528 20.192 13.5309 20.3018 13.5309 20.3237ZM14.8258 3.80796C15.177 3.17147 15.6488 2.68861 16.2634 2.34842C16.8669 2.0192 17.5144 1.8546 18.1948 1.86557C18.3265 1.86557 18.4252 1.86557 18.4911 1.87654V2.20576C18.4801 3.27023 18.7545 4.26886 19.3361 5.22359C19.9067 6.16735 20.7188 6.89163 21.7613 7.38546C21.5199 7.89026 21.2236 8.27435 20.8944 8.55967C19.8848 7.72565 18.7106 7.31962 17.3498 7.31962H17.0096C16.7133 5.92593 15.989 4.76269 14.8258 3.80796Z" fill="black"/>
</svg>
