<svg width="24" height="24" viewBox="0 0 24 24" fill="none" xmlns="http://www.w3.org/2000/svg">
<path d="M0 10.9575C0 12.2432 0.382239 13.39 1.14672 14.3977C1.9112 15.4054 2.89575 16.1004 4.11197 16.471L3.35907 18.417C3.32432 18.5792 3.38224 18.6718 3.52124 18.6718H5.98842L4.78378 23.0502H5.10811L9.70656 17.0039C9.7529 16.9575 9.75289 16.8996 9.72973 16.8417C9.70656 16.7838 9.64865 16.7606 9.56757 16.7606H7.04247L9.91506 11.3861C9.98455 11.2239 9.93822 11.1429 9.7529 11.1429H6.34749C6.24324 11.1429 6.15058 11.2008 6.09266 11.305L4.83012 14.6293C4.00772 14.4208 3.32432 13.9691 2.77992 13.2857C2.23552 12.6023 1.96911 11.8263 1.96911 10.9575C1.96911 9.99614 2.29344 9.16216 2.94208 8.4556C3.59073 7.74903 4.40154 7.34363 5.37452 7.2278L5.97683 7.14672C6.12741 7.14672 6.20849 7.07722 6.20849 6.94981L6.28958 6.34749C6.40541 5.09653 6.92664 4.04247 7.86486 3.19691C8.80309 2.35135 9.90347 1.92278 11.166 1.92278C12.4286 1.92278 13.529 2.35135 14.4672 3.19691C15.417 4.04247 15.9498 5.09653 16.0888 6.34749L16.1583 7.01931C16.1583 7.1583 16.2278 7.2278 16.3784 7.2278H18.2432C19.2973 7.2278 20.1892 7.59846 20.9305 8.32819C21.6718 9.05792 22.0425 9.93822 22.0425 10.9691C22.0425 11.9537 21.695 12.8108 21.0116 13.529C20.3282 14.2471 19.4826 14.6409 18.4749 14.722C18.3243 14.722 18.2432 14.7915 18.2432 14.9421V16.529C18.2432 16.6564 18.3243 16.7259 18.4749 16.7259C19.2278 16.7027 19.9459 16.529 20.6293 16.2162C21.3127 15.9035 21.9035 15.4865 22.39 14.9768C22.8764 14.4672 23.2703 13.8649 23.5598 13.1583C23.8494 12.4633 24 11.7336 24 10.9807C24 9.93822 23.7452 8.97683 23.2239 8.09652C22.7027 7.21622 22.0077 6.52124 21.1274 6.01158C20.2471 5.50193 19.2857 5.2471 18.2548 5.2471H17.8842C17.5019 3.70656 16.6911 2.44402 15.4402 1.47104C14.1892 0.49807 12.7761 0 11.1776 0C9.5444 0 8.08494 0.509653 6.82239 1.51737C5.55985 2.5251 4.74903 3.82239 4.38996 5.40927C3.11583 5.71042 2.06178 6.37066 1.2278 7.41313C0.393822 8.4556 0 9.62548 0 10.9575ZM9.45174 22.3784C9.45174 22.5637 9.50965 22.7374 9.62548 22.9112C9.74131 23.0849 9.92664 23.2124 10.1583 23.2819C10.3205 23.3166 10.4131 23.3398 10.4479 23.3398C10.5521 23.3398 10.6911 23.305 10.888 23.2239C11.1313 23.1197 11.2934 22.9112 11.3745 22.6216L11.6988 21.4054C11.7683 21.1506 11.7452 20.9073 11.6062 20.6757C11.4672 20.444 11.2703 20.2934 10.9923 20.2124C10.7375 20.1429 10.4942 20.166 10.2625 20.305C10.0309 20.444 9.86873 20.6409 9.78764 20.9189L9.4749 22.0772C9.46332 22.2741 9.45174 22.3784 9.45174 22.3784ZM11.0039 16.8533C11.0039 17.0154 11.0618 17.1892 11.1776 17.3629C11.2934 17.5367 11.4672 17.6641 11.6988 17.7452C11.9537 17.8263 12.2085 17.8147 12.4402 17.6873C12.6718 17.5598 12.8224 17.3629 12.9035 17.0849L13.251 15.8803C13.3205 15.6255 13.2857 15.3822 13.1583 15.1506C13.0193 14.9189 12.8108 14.7568 12.5444 14.6757C12.278 14.6062 12.0347 14.6293 11.7915 14.7683C11.5483 14.9073 11.3977 15.1042 11.3166 15.3707L11.0386 16.5405C11.0154 16.7375 11.0039 16.8417 11.0039 16.8533ZM14.2703 18.7645C14.2703 18.9614 14.3282 19.1583 14.4556 19.3552C14.583 19.5521 14.7683 19.6795 15 19.7606C15.0232 19.7606 15.0695 19.7722 15.139 19.7838C15.1969 19.7954 15.2432 19.8069 15.278 19.8069C15.4286 19.8069 15.5792 19.7838 15.7181 19.7143C15.9382 19.6332 16.1004 19.4131 16.1931 19.0541L16.4826 17.8842C16.5637 17.6178 16.5405 17.3629 16.4131 17.1197C16.2857 16.8764 16.0888 16.7143 15.834 16.6332C15.5444 16.5637 15.278 16.5985 15.0463 16.7259C14.8147 16.8649 14.6641 17.0734 14.6178 17.3398L14.305 18.5328C14.2819 18.6023 14.2703 18.6834 14.2703 18.7645ZM15.8456 13.2162C15.834 13.4015 15.8919 13.5753 16.0193 13.7606C16.1467 13.9459 16.332 14.0849 16.5869 14.2008C16.6795 14.2471 16.7722 14.2703 16.888 14.2703C17.0154 14.2703 17.1429 14.2355 17.2819 14.1776C17.5251 14.0618 17.6873 13.8417 17.7915 13.5174L18.1274 12.3243C18.1506 12.1737 18.1622 12.0927 18.1622 12.0695C18.1622 11.8726 18.1042 11.6873 17.9768 11.5019C17.8494 11.3166 17.6641 11.1892 17.4093 11.1197C17.3861 11.1197 17.3398 11.1081 17.2819 11.0965C17.2124 11.0618 17.166 11.0618 17.1313 11.0618C16.9344 11.0618 16.749 11.1197 16.5637 11.2355C16.3784 11.3514 16.251 11.5367 16.1815 11.7915L15.8687 12.9614C15.8571 13.0541 15.8456 13.1351 15.8456 13.2162Z" fill="black"/>
</svg>
