<svg width="24" height="24" viewBox="0 0 24 24" fill="none" xmlns="http://www.w3.org/2000/svg">
<path d="M0 11.0208C0 9.67649 0.405601 8.49445 1.22839 7.45147C2.05118 6.4085 3.10575 5.73636 4.40367 5.41188C4.76292 3.83583 5.57412 2.5379 6.83728 1.51811C8.10043 0.49831 9.54901 0 11.183 0C12.7822 0 14.196 0.49831 15.4476 1.48334C16.6992 2.46837 17.5104 3.74312 17.8812 5.29599H18.2521C19.2834 5.29599 20.2453 5.55094 21.126 6.06084C22.0068 6.57074 22.7137 7.26606 23.2236 8.14679C23.7335 9.02752 24 9.98938 24 11.0208C24 12.5505 23.4669 13.8831 22.3892 14.9841C21.323 16.0966 20.0135 16.676 18.4722 16.7224C18.3216 16.7224 18.2405 16.6528 18.2405 16.5254V14.9841C18.2405 14.845 18.3216 14.7755 18.4722 14.7755C19.4573 14.7291 20.3032 14.3351 20.9986 13.5934C21.6939 12.8518 22.0415 11.9942 22.0415 11.0092C22.0415 9.97779 21.6707 9.09705 20.9174 8.3438C20.1642 7.59054 19.2719 7.2197 18.2289 7.2197H16.3631C16.224 7.2197 16.1545 7.15017 16.1545 7.02269L16.0618 6.35056C15.9343 5.09899 15.3897 4.04442 14.451 3.19845C13.5007 2.35249 12.4114 1.92371 11.1482 1.92371C9.87349 1.92371 8.77257 2.35249 7.8339 3.21004C6.89522 4.0676 6.36214 5.12216 6.24626 6.39691L6.17673 6.97634C6.17673 7.1154 6.09561 7.19652 5.94495 7.19652L5.33076 7.27764C4.3689 7.35876 3.5577 7.75278 2.89715 8.48286C2.2366 9.21294 1.91212 10.0473 1.91212 11.0208C1.91212 12.0058 2.25978 12.8634 2.95509 13.605C3.65041 14.3467 4.49638 14.7291 5.48141 14.7871C5.60888 14.7871 5.67842 14.8566 5.67842 14.9957V16.5369C5.67842 16.6644 5.60888 16.7339 5.48141 16.7339C3.92854 16.6876 2.61902 16.1082 1.54128 14.9957C0.533076 13.8831 0 12.5505 0 11.0208ZM7.37035 15.7373C7.37035 15.4824 7.46306 15.2506 7.64848 15.0652C7.8339 14.8798 8.05408 14.7871 8.33221 14.7871C8.59874 14.7871 8.83052 14.8798 9.01593 15.0652C9.20135 15.2506 9.29406 15.4824 9.29406 15.7373C9.29406 16.0155 9.20135 16.2472 9.01593 16.4326C8.83052 16.6296 8.61033 16.7224 8.33221 16.7224C8.06567 16.7224 7.8339 16.6296 7.64848 16.4326C7.46306 16.2472 7.37035 16.0155 7.37035 15.7373ZM7.37035 19.944C7.37035 19.6659 7.46306 19.4341 7.64848 19.2487C7.8339 19.0748 8.05408 18.9821 8.32062 18.9821C8.58716 18.9821 8.81893 19.0748 9.00435 19.2487C9.18976 19.4341 9.28247 19.6543 9.28247 19.9324C9.28247 20.2105 9.18976 20.4307 9.00435 20.6161C8.81893 20.8015 8.59874 20.8827 8.32062 20.8827C8.05408 20.8827 7.82231 20.79 7.63689 20.6161C7.46306 20.4423 7.37035 20.2105 7.37035 19.944ZM11.0671 17.9739C11.0671 17.7074 11.1598 17.464 11.3568 17.2554C11.5422 17.07 11.7624 16.9773 12.0174 16.9773C12.2839 16.9773 12.5157 17.0816 12.7127 17.2786C12.9097 17.4756 13.014 17.7074 13.014 17.9739C13.014 18.2405 12.9213 18.4722 12.7243 18.6692C12.5273 18.8662 12.2955 18.959 12.0174 18.959C11.7508 18.959 11.5307 18.8662 11.3452 18.6692C11.1598 18.4722 11.0671 18.2405 11.0671 17.9739ZM11.0671 13.7788C11.0671 13.5123 11.1598 13.2805 11.3568 13.0835C11.5654 12.8981 11.7856 12.8054 12.0174 12.8054C12.2955 12.8054 12.5273 12.8981 12.7243 13.0951C12.9213 13.2921 13.014 13.5123 13.014 13.7904C13.014 14.057 12.9213 14.2887 12.7243 14.4742C12.5273 14.6596 12.2955 14.7523 12.0174 14.7523C11.7508 14.7523 11.5307 14.6596 11.3452 14.4742C11.1598 14.2772 11.0671 14.0454 11.0671 13.7788ZM11.0671 22.2154C11.0671 21.9488 11.1598 21.717 11.3568 21.5084C11.5422 21.323 11.7624 21.2303 12.0174 21.2303C12.2955 21.2303 12.5273 21.323 12.7243 21.52C12.9213 21.717 13.014 21.9488 13.014 22.2154C13.014 22.4819 12.9213 22.7137 12.7243 22.8991C12.5273 23.0845 12.2955 23.1772 12.0174 23.1772C11.7508 23.1772 11.5307 23.0845 11.3452 22.8991C11.1598 22.7021 11.0671 22.4819 11.0671 22.2154ZM14.7986 15.7373C14.7986 15.4824 14.8914 15.2622 15.0884 15.0652C15.2854 14.8682 15.5171 14.7755 15.7837 14.7755C16.0502 14.7755 16.282 14.8682 16.4674 15.0536C16.6528 15.239 16.7455 15.4708 16.7455 15.7257C16.7455 16.0039 16.6528 16.2356 16.4674 16.4211C16.282 16.6181 16.0618 16.7108 15.7837 16.7108C15.5056 16.7108 15.2738 16.6181 15.0884 16.4211C14.9029 16.2356 14.7986 16.0039 14.7986 15.7373ZM14.7986 19.944C14.7986 19.689 14.8914 19.4573 15.0884 19.2487C15.2738 19.0748 15.5056 18.9821 15.7837 18.9821C16.0618 18.9821 16.282 19.0748 16.4674 19.2487C16.6528 19.4225 16.7339 19.6543 16.7339 19.9324C16.7339 20.2105 16.6412 20.4307 16.4674 20.6161C16.282 20.8015 16.0618 20.8827 15.7837 20.8827C15.5056 20.8827 15.2738 20.79 15.0884 20.6045C14.9029 20.4307 14.7986 20.2105 14.7986 19.944Z" fill="black"/>
</svg>
