<svg width="24" height="9" viewBox="0 0 24 9" fill="none" xmlns="http://www.w3.org/2000/svg">
<path d="M0 4.26461C0 4.00966 0.0927089 3.78947 0.266538 3.61564C0.451956 3.44182 0.672139 3.3607 0.927088 3.3607H14.9261C15.1811 3.3607 15.3897 3.44182 15.5519 3.61564C15.7141 3.78947 15.8069 4.00966 15.8069 4.2762C15.8069 4.53114 15.7257 4.73974 15.5519 4.90198C15.3897 5.06422 15.1811 5.15693 14.9261 5.15693H0.927088C0.672139 5.15693 0.440367 5.07581 0.266538 4.90198C0.0811203 4.72815 0 4.51956 0 4.26461ZM2.79285 0.903912C2.79285 0.648963 2.88556 0.440368 3.05939 0.266538C3.23322 0.0927094 3.4534 0 3.70835 0H17.719C17.9623 0 18.1709 0.0927094 18.3448 0.266538C18.5186 0.440368 18.5997 0.648963 18.5997 0.903912C18.5997 1.15886 18.5186 1.36746 18.3448 1.55287C18.1709 1.7267 17.9623 1.81941 17.719 1.81941H3.71994C3.46499 1.81941 3.24481 1.7267 3.07098 1.55287C2.89715 1.37904 2.79285 1.15886 2.79285 0.903912ZM4.67021 7.55577C4.67021 7.31241 4.76292 7.10381 4.94833 6.92998C5.11057 6.76774 5.31917 6.67504 5.57412 6.67504H19.5963C19.8513 6.67504 20.0715 6.75616 20.2453 6.92998C20.4191 7.09223 20.5002 7.30082 20.5002 7.55577C20.5002 7.81072 20.4075 8.0309 20.2337 8.20473C20.0599 8.37856 19.8397 8.47127 19.5847 8.47127H5.57412C5.31917 8.47127 5.11057 8.37856 4.92516 8.20473C4.73974 8.0309 4.67021 7.81072 4.67021 7.55577ZM16.931 4.26461C16.931 3.99807 17.0121 3.77789 17.1859 3.60406C17.3597 3.43023 17.5799 3.34911 17.8465 3.34911H23.0845C23.351 3.34911 23.5712 3.43023 23.7451 3.60406C23.9189 3.77789 24 3.99807 24 4.25302C24 4.50797 23.9189 4.71656 23.7451 4.8788C23.5712 5.04104 23.351 5.13375 23.0961 5.13375H17.858C17.5915 5.13375 17.3713 5.05263 17.1975 4.8788C17.0121 4.72815 16.931 4.51956 16.931 4.26461Z" fill="currentColor"/>
</svg>
