<svg width="24" height="24" viewBox="0 0 24 24" fill="none" xmlns="http://www.w3.org/2000/svg">
<path d="M0 12.0213C0 9.84725 0.543517 7.83304 1.61989 5.98934C2.69627 4.14565 4.15631 2.68561 6 1.60924C7.84369 0.53286 9.84725 0 12.0107 0C13.6306 0 15.1865 0.319716 16.6679 0.94849C18.1492 1.57726 19.4174 2.4405 20.4938 3.50622C21.5702 4.57194 22.4227 5.8508 23.0515 7.34281C23.6803 8.83481 24 10.3801 24 12.0213C24 13.6412 23.6803 15.1972 23.0515 16.6785C22.4227 18.1599 21.5595 19.4387 20.4938 20.5044C19.4281 21.5702 18.1492 22.4227 16.6679 23.0515C15.1865 23.6803 13.6412 24 12.0107 24C10.3801 24 8.8135 23.6803 7.33215 23.0515C5.8508 22.4227 4.57194 21.5595 3.49556 20.4938C2.41918 19.4281 1.57726 18.1492 0.937833 16.6785C0.298401 15.2078 0 13.6519 0 12.0213ZM2.64298 12.0213C2.64298 14.5471 3.5595 16.7425 5.4032 18.6075C7.24689 20.4512 9.44227 21.3677 12.0107 21.3677C13.6945 21.3677 15.2611 20.952 16.6892 20.1101C18.1172 19.2682 19.2682 18.1385 20.1101 16.6998C20.952 15.2611 21.3783 13.7052 21.3783 12.0213C21.3783 10.3375 20.952 8.77087 20.1101 7.33215C19.2682 5.89343 18.1279 4.75311 16.6892 3.91119C15.2504 3.06927 13.6945 2.65364 12.0107 2.65364C10.3268 2.65364 8.76021 3.06927 7.33215 3.91119C5.90409 4.75311 4.75311 5.89343 3.90053 7.33215C3.04796 8.77087 2.64298 10.3375 2.64298 12.0213ZM7.85435 18.2558L11.8508 4.28419C11.8615 4.17762 11.9147 4.12433 12.0107 4.12433C12.1066 4.12433 12.1599 4.17762 12.1705 4.28419L16.1563 18.2558C16.1989 18.373 16.1883 18.4583 16.135 18.5222C16.0817 18.5861 15.9964 18.5861 15.8792 18.5222L12.1812 17.1368C12.0746 17.0941 11.968 17.0941 11.8721 17.1368L8.1421 18.5222C8.03552 18.5861 7.96092 18.5861 7.9183 18.5222C7.87567 18.4583 7.83304 18.3623 7.85435 18.2558Z" fill="currentColor"/>
</svg>
