<svg width="19" height="24" viewBox="0 0 19 24" fill="none" xmlns="http://www.w3.org/2000/svg">
<path d="M0 14.7162C0 13.6121 0.301097 12.345 0.903293 10.9148C1.50549 9.48458 2.28333 8.092 3.2368 6.76215C5.19394 4.17773 6.90016 2.2206 8.33037 0.903293L9.2713 0C9.58494 0.326189 9.93622 0.627287 10.3126 0.903293C10.827 1.43021 11.6174 2.29587 12.6712 3.52535C13.725 4.75484 14.6409 5.84631 15.3936 6.84997C16.2844 8.11709 17.0497 9.48458 17.6644 10.9273C18.2791 12.3701 18.5928 13.6372 18.5928 14.7287C18.5928 15.9833 18.3544 17.1751 17.8651 18.3168C17.3758 19.4584 16.7235 20.4496 15.8955 21.2776C15.0674 22.1056 14.0763 22.7705 12.9221 23.2598C11.7679 23.7491 10.551 24 9.2713 24C8.01673 24 6.82488 23.7616 5.68322 23.2849C4.54156 22.8082 3.55044 22.1683 2.72242 21.3403C1.89441 20.5248 1.22948 19.5337 0.740198 18.3921C0.250914 17.2504 0 16.0209 0 14.7162ZM2.83534 11.0403C2.83534 12.0815 3.04861 12.9096 3.48772 13.5369C3.92682 14.1516 4.59174 14.4652 5.48249 14.4652C6.38578 14.4652 7.05071 14.1516 7.50235 13.5369C7.94145 12.9221 8.16728 12.0941 8.17982 11.0403C8.16728 9.98641 7.94145 9.15839 7.50235 8.5311C7.06325 7.91636 6.38578 7.60272 5.48249 7.60272C4.59174 7.60272 3.92682 7.91636 3.48772 8.5311C3.04861 9.15839 2.83534 9.98641 2.83534 11.0403ZM4.80502 11.0403C4.80502 10.8521 4.80502 10.7015 4.80502 10.6011C4.80502 10.5008 4.81756 10.3628 4.83011 10.1871C4.84266 10.0115 4.8552 9.8735 4.89284 9.78568C4.93048 9.69786 4.95557 9.58495 5.00575 9.48458C5.05593 9.38421 5.11866 9.29639 5.19394 9.25876C5.28176 9.20857 5.36958 9.18348 5.48249 9.18348C5.65813 9.18348 5.79613 9.23366 5.8965 9.33403C5.99686 9.4344 6.07214 9.59749 6.10978 9.81077C6.14741 10.0366 6.1725 10.2122 6.18505 10.3753C6.1976 10.5384 6.1976 10.7517 6.1976 11.0277C6.1976 11.3163 6.1976 11.5295 6.18505 11.6801C6.1725 11.8306 6.14741 12.0188 6.10978 12.2446C6.07214 12.4579 5.99686 12.621 5.8965 12.7214C5.79613 12.8217 5.65813 12.8719 5.48249 12.8719C5.36958 12.8719 5.28176 12.8468 5.19394 12.7967C5.10612 12.7465 5.04339 12.6712 5.00575 12.5708C4.95557 12.4705 4.91793 12.3576 4.89284 12.2697C4.86775 12.1694 4.84266 12.0314 4.83011 11.8683C4.81756 11.6926 4.80502 11.5546 4.80502 11.4668C4.80502 11.379 4.80502 11.2284 4.80502 11.0403ZM5.54522 20.7632H7.20125L13.4616 7.28908H11.7679L5.54522 20.7632ZM10.9399 17.012C10.9524 18.0659 11.1908 18.8939 11.6299 19.5212C12.069 20.1359 12.7465 20.4496 13.6372 20.4496C14.5405 20.4496 15.2054 20.1359 15.6445 19.5212C16.0836 18.9064 16.2969 18.0659 16.3095 17.012C16.2969 15.9582 16.0836 15.1302 15.6445 14.5154C15.2054 13.9007 14.5405 13.587 13.6372 13.587C12.7465 13.587 12.069 13.9007 11.6299 14.5154C11.1783 15.1302 10.9524 15.9582 10.9399 17.012ZM12.9096 17.012C12.9096 16.7235 12.9096 16.5102 12.9221 16.3596C12.9347 16.2091 12.9597 16.0209 12.9974 15.7951C13.035 15.5693 13.1103 15.4187 13.2107 15.3183C13.311 15.218 13.449 15.1678 13.6247 15.1678C13.7376 15.1678 13.838 15.1929 13.9258 15.2431C14.0136 15.2933 14.0763 15.3685 14.1265 15.4814C14.1767 15.5944 14.2143 15.6947 14.252 15.7825C14.2896 15.8704 14.3021 16.0084 14.3147 16.184L14.3272 16.5855V17.012V17.4511L14.3147 17.8526L14.252 18.2541L14.1265 18.5551L13.9258 18.7935L13.6247 18.8688C13.449 18.8688 13.311 18.8186 13.2107 18.7182C13.1103 18.6179 13.035 18.4548 12.9974 18.2415C12.9597 18.0157 12.9347 17.8275 12.9221 17.6769C12.9096 17.5264 12.9096 17.3006 12.9096 17.012Z" fill="currentColor"/>
</svg>
